# Blender v2.79 (sub 0) OBJ File: 'room.blend'
# www.blender.org
mtllib Wall_2.mtl
o Wall_2_Cube.003
v 505.000031 0.000000 500.000000
v 505.000031 600.000000 500.000000
v 495.000031 0.000000 500.000000
v 495.000031 600.000000 500.000000
v 504.999969 0.000000 -500.000000
v 504.999969 600.000000 -500.000000
v 494.999969 0.000000 -500.000000
v 494.999969 600.000000 -500.000000
v 495.000000 0.000000 -284.924225
v 495.000000 600.000000 -284.924225
v 505.000000 0.000000 -284.924225
v 505.000000 600.000000 -284.924225
v 505.000031 244.929138 500.000000
v 495.000031 244.929138 500.000000
v 494.999969 244.929138 -500.000000
v 504.999969 244.929138 -500.000000
v 505.000000 244.929138 -284.924225
v 495.000000 244.929138 -284.924225
v 505.000031 532.108643 500.000000
v 495.000031 532.108643 500.000000
v 494.999969 532.108643 -500.000000
v 504.999969 532.108643 -500.000000
v 505.000000 532.108643 -284.924225
v 495.000000 532.108643 -284.924225
v 495.000000 0.000000 130.178665
v 505.000000 600.000000 130.178665
v 495.000000 600.000000 130.178635
v 505.000000 0.000000 130.178635
v 495.000000 244.929138 130.178635
v 505.000000 244.929138 130.178665
v 495.000000 532.108643 130.178635
v 505.000000 532.108643 130.178665
v 495.000031 228.221344 500.000000
v 494.999969 228.221344 -500.000000
v 504.999969 228.221344 -500.000000
v 505.000000 228.221344 -284.924225
v 495.000000 228.221344 -284.924225
v 505.000031 228.221344 500.000000
v 505.000000 228.221344 130.178665
v 495.000000 228.221344 130.178635
v 495.000000 600.000000 -295.691376
v 505.000000 0.000000 -295.691376
v 495.000000 0.000000 -295.691376
v 505.000000 600.000000 -295.691376
v 505.000000 244.929138 -295.691376
v 495.000000 244.929138 -295.691376
v 505.000000 532.108643 -295.691376
v 495.000000 532.108643 -295.691376
v 495.000000 228.221344 -295.691376
v 505.000000 228.221344 -295.691376
v 495.000000 0.000000 141.561432
v 505.000000 600.000000 141.561432
v 505.000000 244.929138 141.561432
v 505.000000 532.108643 141.561432
v 495.000000 600.000000 141.561401
v 505.000000 0.000000 141.561401
v 495.000000 244.929138 141.561401
v 495.000000 532.108643 141.561401
v 495.000000 228.221344 141.561401
v 505.000000 228.221344 141.561432
v 470.000000 532.108643 -284.924225
v 470.000000 244.929138 -284.924225
v 470.000000 244.929138 130.178635
v 470.000000 532.108643 130.178635
v 470.000000 532.108643 -284.924225
v 470.000000 244.929138 -284.924225
v 470.000000 244.929138 -295.691376
v 470.000000 532.108643 -295.691376
v 505.000031 544.366516 500.000000
v 495.000031 544.366516 500.000000
v 494.999969 544.366516 -500.000000
v 504.999969 544.366516 -500.000000
v 505.000000 544.366516 -284.924225
v 495.000000 544.366516 -284.924225
v 495.000000 544.366516 130.178635
v 505.000000 544.366516 130.178665
v 505.000000 544.366516 -295.691376
v 495.000000 544.366516 -295.691376
v 495.000000 544.366516 141.561401
v 505.000000 544.366516 141.561432
v 470.000000 544.366516 -284.924225
v 470.000000 532.108643 -284.924225
v 470.000000 532.108643 130.178635
v 470.000000 244.929138 141.561401
v 470.000000 244.929138 130.178635
v 470.000000 532.108643 141.561401
v 470.000000 544.366516 130.178635
v 470.000000 532.108643 -295.691376
v 470.000000 544.366516 -295.691376
v 470.000000 544.366516 141.561401
v 405.072388 244.929138 -284.924225
v 405.072388 244.929138 -295.691376
v 405.072418 244.929138 130.178635
v 405.072418 244.929138 141.561401
v 405.072388 228.221344 -295.691376
v 405.072418 228.221344 141.561401
v 405.072418 228.221344 130.178635
v 405.072388 228.221344 -284.924225
vt 0.127343 0.150948
vt 0.134761 0.070948
vt 0.134761 0.150948
vt 0.795685 1.000000
vt 1.000000 0.907272
vt 0.795685 0.907272
vt 0.000000 0.000000
vt 0.000000 0.000000
vt 0.000000 0.000000
vt 0.358444 1.000000
vt 0.000000 0.907272
vt 0.358444 0.907272
vt 0.000000 0.000000
vt 0.000000 0.000000
vt 0.000000 0.000000
vt 0.000000 0.000000
vt 0.000000 0.000000
vt 0.000000 0.000000
vt 0.000000 0.000000
vt 0.000000 0.000000
vt 0.000000 0.000000
vt 0.033208 0.080000
vt 0.000000 0.160000
vt 0.000000 0.080000
vt 0.000000 0.000000
vt 0.000000 0.000000
vt 0.369827 1.000000
vt 0.784927 0.907272
vt 0.369827 0.907272
vt 0.016345 0.047343
vt 0.017206 0.049570
vt 0.016345 0.049570
vt 0.358444 0.408218
vt 0.000000 0.380371
vt 0.358444 0.380371
vt 0.000000 0.000000
vt 0.000000 0.000000
vt 0.000000 0.000000
vt 0.795685 0.408218
vt 1.000000 0.380371
vt 0.795685 0.380371
vt 0.000000 0.000000
vt 0.000000 0.000000
vt 0.000000 0.000000
vt 0.000000 0.000000
vt 0.000000 0.000000
vt 0.000000 0.000000
vt 0.016345 0.009052
vt 0.017206 0.047343
vt 0.358444 0.886841
vt 0.000000 0.408218
vt 0.000000 0.000000
vt 0.000000 0.000000
vt 0.795685 0.886841
vt 1.000000 0.408218
vt 0.000000 0.000000
vt 0.000000 0.000000
vt 0.000000 0.907272
vt 2.500000 0.886841
vt 0.000000 0.886841
vt 0.050414 0.049570
vt 0.358444 1.000000
vt 0.358444 0.907272
vt 0.000000 0.000000
vt 0.000000 0.000000
vt 0.000000 0.000000
vt 0.369827 0.000000
vt 0.784927 -1.000000
vt 0.784927 0.000000
vt 0.784927 1.000000
vt 0.369827 0.907272
vt 0.784927 0.907272
vt 0.358444 0.380371
vt 0.369827 0.000000
vt 0.358444 0.000000
vt 0.784927 0.380371
vt 0.369827 0.000000
vt 0.784927 0.000000
vt 0.000000 0.000000
vt 0.000000 0.000000
vt 1.000000 0.000000
vt 0.795685 0.000000
vt 0.000000 0.000000
vt 0.051325 0.049570
vt 0.080000 0.080000
vt 0.051325 0.080000
vt 0.795685 0.380371
vt 0.795685 0.000000
vt 0.369827 0.380371
vt 0.784927 0.000000
vt 0.000000 0.380371
vt -0.204315 0.000000
vt 0.784927 0.380371
vt 0.000000 0.000000
vt 0.000000 0.000000
vt 0.000000 0.886841
vt -0.204315 0.408218
vt 0.000000 0.408218
vt -0.204315 0.380371
vt 0.000000 1.000000
vt -0.204315 0.907272
vt 0.000000 0.907272
vt 0.000000 0.000000
vt 0.000000 0.000000
vt 0.000000 0.000000
vt 0.784927 1.000000
vt 0.050414 0.080000
vt 0.000000 0.380371
vt 0.000000 1.000000
vt 0.000000 0.907272
vt 0.000000 0.408218
vt 0.000000 0.886841
vt 0.358444 0.408218
vt 0.369827 0.886841
vt 0.369827 0.408218
vt 0.000000 0.000000
vt 0.000000 0.000000
vt 0.000000 0.000000
vt 0.000000 0.000000
vt 0.000000 0.000000
vt 0.369827 1.000000
vt 0.000000 0.000000
vt 0.000000 0.000000
vt 0.784927 0.000000
vt 0.369827 2.500000
vt 0.369827 0.000000
vt 0.000000 0.000000
vt 0.000000 0.000000
vt 0.784927 0.886841
vt 0.795685 0.408218
vt 0.784927 0.408218
vt 0.000000 0.000000
vt 0.000000 0.000000
vt 0.000000 0.886841
vt 2.500000 0.408218
vt 0.000000 0.408218
vt 0.000000 0.000000
vt 0.000000 0.000000
vt 0.000000 0.000000
vt 0.000000 0.000000
vt 0.358444 0.886841
vt 0.000000 0.000000
vt 0.000000 0.000000
vt -0.204315 0.886841
vt 0.000000 0.000000
vt 0.000000 0.000000
vt 0.000000 0.000000
vt 0.000000 0.000000
vt 0.000000 0.000000
vt 0.000000 0.000000
vt 0.000000 0.000000
vt 0.000000 0.886841
vt 0.000000 0.000000
vt 1.000000 0.886841
vt 0.000000 0.000000
vt 0.000000 0.000000
vt 0.358444 0.886841
vt 0.369827 0.408218
vt 0.358444 0.408218
vt 0.784927 0.907272
vt 0.795685 0.886841
vt 0.784927 0.886841
vt 0.358444 0.907272
vt 0.369827 0.886841
vt 0.369827 0.907272
vt 0.784927 0.000000
vt 0.369827 2.500000
vt 0.369827 0.000000
vt 0.000000 0.000000
vt 0.000000 0.000000
vt 0.784927 2.500000
vt 0.795685 2.500000
vt 0.795685 0.000000
vt 0.000000 0.408218
vt 2.500000 0.886841
vt 0.000000 0.886841
vt 2.500000 0.408218
vt 0.000000 0.408218
vt 0.000000 0.000000
vt 0.000000 0.000000
vt 0.000000 0.000000
vt 0.000000 0.000000
vt 0.000000 0.000000
vt 6.250000 0.380371
vt 0.000000 0.380371
vt 0.000000 0.000000
vt 0.000000 0.000000
vt 0.000000 0.380371
vt 6.250000 0.408218
vt 0.000000 0.408218
vt 0.000000 0.000000
vt 0.000000 0.000000
vt 0.000000 0.000000
vt 6.250000 0.408218
vt 0.127343 0.070948
vt 1.000000 1.000000
vt 0.000000 1.000000
vt 0.000000 0.000000
vt 0.000000 0.000000
vt 0.033208 0.160000
vt 0.017206 0.009052
vt 2.500000 0.907272
vt 0.050414 0.047343
vt 0.000000 0.000000
vt 0.369827 -1.000000
vt 0.369827 0.380371
vt 0.080000 0.049570
vt 0.000000 0.000000
vt -0.204315 1.000000
vt 0.000000 0.000000
vt 0.000000 0.000000
vt 0.784927 2.500000
vt 0.795685 0.886841
vt 2.500000 0.886841
vt 0.000000 0.000000
vt 0.000000 0.000000
vt 0.000000 0.000000
vt 0.000000 0.000000
vt 0.795685 0.907272
vt 0.784927 2.500000
vt 0.000000 0.000000
vt 0.369827 2.500000
vt 2.500000 0.408218
vt 0.000000 0.000000
vt 6.250000 0.380371
vt 0.000000 0.000000
vn 0.0000 0.0000 1.0000
vn -1.0000 0.0000 0.0000
vn 0.0000 0.0000 -1.0000
vn 1.0000 0.0000 -0.0000
vn 0.0000 -1.0000 0.0000
vn 0.0000 1.0000 0.0000
usemtl Walls
s off
f 2/1/1 70/2/1 69/3/1
f 41/4/2 71/5/2 78/6/2
f 8/7/3 72/8/3 71/9/3
f 52/10/4 69/11/4 80/12/4
f 7/13/5 42/14/5 43/15/5
f 4/16/6 52/17/6 55/18/6
f 10/19/6 44/20/6 41/21/6
f 9/22/5 28/23/5 25/24/5
f 44/20/4 73/25/4 77/26/4
f 27/27/2 74/28/2 75/29/2
f 45/30/4 36/31/4 50/32/4
f 53/33/4 38/34/4 60/35/4
f 15/36/3 35/37/3 34/38/3
f 46/39/2 34/40/2 49/41/2
f 13/42/1 33/43/1 38/44/1
f 29/45/5 62/46/5 18/47/5
f 47/48/4 17/49/4 45/30/4
f 54/50/4 13/51/4 53/33/4
f 21/52/3 16/53/3 15/36/3
f 48/54/2 15/55/2 46/39/2
f 19/56/1 14/57/1 13/42/1
f 79/58/1 86/59/1 58/60/1
f 17/49/4 39/61/4 36/31/4
f 55/62/2 75/29/2 79/63/2
f 25/64/5 56/65/5 51/66/5
f 27/67/6 12/68/6 10/69/6
f 12/70/4 76/71/4 73/72/4
f 59/73/2 25/74/2 51/75/2
f 36/76/4 28/77/4 11/78/4
f 38/44/1 3/79/1 1/80/1
f 49/41/2 7/81/2 43/82/2
f 34/38/3 5/83/3 7/13/3
f 60/84/4 1/85/4 56/86/4
f 50/87/4 11/78/4 42/88/4
f 40/89/2 9/90/2 25/74/2
f 35/91/4 42/92/4 5/83/4
f 37/93/2 43/82/2 9/90/2
f 18/47/5 67/94/5 46/95/5
f 22/96/4 45/97/4 16/98/4
f 16/98/4 50/99/4 35/91/4
f 6/100/4 77/101/4 72/102/4
f 41/21/6 6/103/6 8/7/6
f 43/15/5 11/104/5 9/105/5
f 10/106/2 78/6/2 74/28/2
f 39/61/4 56/86/4 28/107/4
f 33/108/2 51/75/2 3/79/2
f 51/66/5 1/80/5 3/79/5
f 4/109/2 79/63/2 70/110/2
f 14/111/2 59/73/2 33/108/2
f 20/112/2 57/113/2 14/111/2
f 32/114/4 53/33/4 30/115/4
f 30/116/4 60/117/4 39/118/4
f 55/18/6 26/119/6 27/120/6
f 26/121/4 80/12/4 76/71/4
f 31/122/1 63/123/1 29/45/1
f 24/124/6 64/125/6 31/126/6
f 18/47/3 61/127/3 24/128/3
f 65/129/2 67/130/2 66/131/2
f 46/95/3 68/132/3 48/133/3
f 24/134/1 66/135/1 18/136/1
f 48/133/6 65/137/6 24/128/6
f 76/138/4 54/139/4 32/140/4
f 70/110/2 58/141/2 20/112/2
f 48/133/3 89/142/3 78/143/3
f 72/102/4 47/144/4 22/96/4
f 73/25/4 32/140/4 23/145/4
f 78/143/6 81/146/6 74/147/6
f 75/148/6 90/149/6 79/150/6
f 77/26/4 23/145/4 47/151/4
f 80/12/4 19/152/4 54/50/4
f 71/9/3 22/153/3 21/52/3
f 78/6/2 21/154/2 48/54/2
f 69/155/1 20/156/1 19/56/1
f 86/157/2 85/158/2 84/159/2
f 81/160/2 88/161/2 82/162/2
f 90/163/2 83/164/2 86/157/2
f 87/165/2 82/162/2 83/164/2
f 74/166/6 87/167/6 75/168/6
f 57/169/5 85/170/5 29/45/5
f 31/126/5 82/171/5 24/124/5
f 24/124/5 88/172/5 48/173/5
f 29/174/3 83/175/3 31/176/3
f 58/60/1 84/177/1 57/178/1
f 37/179/5 95/180/5 49/181/5
f 40/182/5 98/183/5 37/179/5
f 57/178/1 96/184/1 59/185/1
f 59/186/5 97/187/5 40/182/5
f 49/188/3 92/189/3 46/190/3
f 46/95/6 91/191/6 18/47/6
f 18/47/6 93/192/6 29/45/6
f 29/45/6 94/193/6 57/169/6
f 92/189/2 96/184/2 94/194/2
f 2/1/1 4/195/1 70/2/1
f 41/4/2 8/196/2 71/5/2
f 8/7/3 6/103/3 72/8/3
f 52/10/4 2/197/4 69/11/4
f 7/13/5 5/83/5 42/14/5
f 4/16/6 2/198/6 52/17/6
f 10/19/6 12/199/6 44/20/6
f 9/22/5 11/200/5 28/23/5
f 44/20/4 12/199/4 73/25/4
f 27/27/2 10/106/2 74/28/2
f 45/30/4 17/49/4 36/31/4
f 53/33/4 13/51/4 38/34/4
f 15/36/3 16/53/3 35/37/3
f 46/39/2 15/55/2 34/40/2
f 13/42/1 14/57/1 33/43/1
f 29/45/5 63/123/5 62/46/5
f 47/48/4 23/201/4 17/49/4
f 54/50/4 19/152/4 13/51/4
f 21/52/3 22/153/3 16/53/3
f 48/54/2 21/154/2 15/55/2
f 19/56/1 20/156/1 14/57/1
f 79/58/1 90/202/1 86/59/1
f 17/49/4 30/203/4 39/61/4
f 55/62/2 27/27/2 75/29/2
f 25/64/5 28/204/5 56/65/5
f 27/67/6 26/205/6 12/68/6
f 12/70/4 26/121/4 76/71/4
f 59/73/2 40/89/2 25/74/2
f 36/76/4 39/206/4 28/77/4
f 38/44/1 33/43/1 3/79/1
f 49/41/2 34/40/2 7/81/2
f 34/38/3 35/37/3 5/83/3
f 60/84/4 38/207/4 1/85/4
f 50/87/4 36/76/4 11/78/4
f 40/89/2 37/93/2 9/90/2
f 35/91/4 50/99/4 42/92/4
f 37/93/2 49/41/2 43/82/2
f 18/47/5 66/208/5 67/94/5
f 22/96/4 47/144/4 45/97/4
f 16/98/4 45/97/4 50/99/4
f 6/100/4 44/209/4 77/101/4
f 41/21/6 44/20/6 6/103/6
f 43/15/5 42/14/5 11/104/5
f 10/106/2 41/4/2 78/6/2
f 39/61/4 60/84/4 56/86/4
f 33/108/2 59/73/2 51/75/2
f 51/66/5 56/65/5 1/80/5
f 4/109/2 55/62/2 79/63/2
f 14/111/2 57/113/2 59/73/2
f 20/112/2 58/141/2 57/113/2
f 32/114/4 54/50/4 53/33/4
f 30/116/4 53/210/4 60/117/4
f 55/18/6 52/17/6 26/119/6
f 26/121/4 52/10/4 80/12/4
f 31/122/1 64/211/1 63/123/1
f 24/124/6 61/212/6 64/125/6
f 18/47/3 62/46/3 61/127/3
f 65/129/2 68/213/2 67/130/2
f 46/95/3 67/94/3 68/132/3
f 24/134/1 65/214/1 66/135/1
f 48/133/6 68/132/6 65/137/6
f 76/138/4 80/215/4 54/139/4
f 70/110/2 79/63/2 58/141/2
f 48/133/3 88/216/3 89/142/3
f 72/102/4 77/101/4 47/144/4
f 73/25/4 76/138/4 32/140/4
f 78/143/6 89/142/6 81/146/6
f 75/148/6 87/217/6 90/149/6
f 77/26/4 73/25/4 23/145/4
f 80/12/4 69/11/4 19/152/4
f 71/9/3 72/8/3 22/153/3
f 78/6/2 71/5/2 21/154/2
f 69/155/1 70/218/1 20/156/1
f 86/157/2 83/164/2 85/158/2
f 81/160/2 89/219/2 88/161/2
f 90/163/2 87/165/2 83/164/2
f 87/165/2 81/160/2 82/162/2
f 74/166/6 81/220/6 87/167/6
f 57/169/5 84/221/5 85/170/5
f 31/126/5 83/222/5 82/171/5
f 24/124/5 82/171/5 88/172/5
f 29/174/3 85/223/3 83/175/3
f 58/60/1 86/59/1 84/177/1
f 37/179/5 98/183/5 95/180/5
f 40/182/5 97/187/5 98/183/5
f 57/178/1 94/194/1 96/184/1
f 59/186/5 96/224/5 97/187/5
f 49/188/3 95/225/3 92/189/3
f 46/95/6 92/226/6 91/191/6
f 18/47/6 91/191/6 93/192/6
f 29/45/6 93/192/6 94/193/6
f 92/189/2 95/225/2 96/184/2
