# Blender v2.79 (sub 0) OBJ File: 'bookshelf.blend'
# www.blender.org
mtllib Cylinder.mtl
o Cylinder
v 32.697678 -80.000000 -17.302320
v 37.302322 -80.000000 -17.302320
v 32.697678 -80.449158 -17.258083
v 37.302322 -80.449158 -17.258083
v 32.697678 -80.881058 -17.127068
v 37.302322 -80.881058 -17.127068
v 32.697678 -81.279099 -16.914310
v 37.302322 -81.279099 -16.914310
v 32.697678 -81.627983 -16.627987
v 37.302322 -81.627991 -16.627987
v 32.697678 -81.914307 -16.279100
v 37.302322 -81.914307 -16.279100
v 32.697678 -82.127068 -15.881061
v 37.302322 -82.127068 -15.881061
v 32.697678 -82.258080 -15.449161
v 37.302322 -82.258080 -15.449161
v 32.697678 -82.302322 -15.000000
v 37.302322 -82.302322 -15.000000
v 32.697678 -82.258080 -14.550839
v 37.302322 -82.258080 -14.550839
v 32.697678 -82.127068 -14.118940
v 37.302322 -82.127068 -14.118940
v 32.697678 -81.914307 -13.720899
v 37.302322 -81.914307 -13.720899
v 32.697678 -81.627983 -13.372013
v 37.302322 -81.627991 -13.372013
v 32.697678 -81.279099 -13.085690
v 37.302322 -81.279099 -13.085690
v 32.697678 -80.881058 -12.872932
v 37.302322 -80.881058 -12.872932
v 32.697678 -80.449158 -12.741917
v 37.302322 -80.449158 -12.741917
v 32.697678 -80.000000 -12.697679
v 37.302322 -80.000000 -12.697679
v 32.697678 -79.550835 -12.741918
v 37.302322 -79.550842 -12.741918
v 32.697678 -79.118942 -12.872933
v 37.302322 -79.118942 -12.872933
v 32.697678 -78.720901 -13.085690
v 37.302322 -78.720901 -13.085690
v 32.697678 -78.372009 -13.372014
v 37.302322 -78.372009 -13.372014
v 32.697678 -78.085686 -13.720901
v 37.302322 -78.085686 -13.720901
v 32.697678 -77.872932 -14.118941
v 37.302322 -77.872932 -14.118941
v 32.697678 -77.741920 -14.550841
v 37.302322 -77.741920 -14.550841
v 32.697678 -77.697678 -15.000002
v 37.302322 -77.697678 -15.000002
v 32.697678 -77.741920 -15.449163
v 37.302322 -77.741920 -15.449163
v 32.697678 -77.872932 -15.881063
v 37.302322 -77.872932 -15.881063
v 32.697678 -78.085693 -16.279104
v 37.302322 -78.085693 -16.279104
v 32.697678 -78.372017 -16.627989
v 37.302322 -78.372017 -16.627989
v 32.697678 -78.720901 -16.914312
v 37.302322 -78.720901 -16.914312
v 32.697678 -79.118942 -17.127069
v 37.302322 -79.118942 -17.127069
v 32.697678 -79.550842 -17.258083
v 37.302322 -79.550842 -17.258083
v 32.561897 -80.716972 13.012642
v 37.166542 -80.716972 13.012642
v 32.561897 -81.166130 13.056881
v 37.166542 -81.166130 13.056881
v 32.561897 -81.598030 13.187897
v 37.166542 -81.598030 13.187897
v 32.561897 -81.996071 13.400654
v 37.166542 -81.996071 13.400654
v 32.561897 -82.344963 13.686977
v 37.166542 -82.344963 13.686977
v 32.561897 -82.631287 14.035862
v 37.166542 -82.631287 14.035862
v 32.561897 -82.844040 14.433903
v 37.166542 -82.844040 14.433903
v 32.561897 -82.975052 14.865803
v 37.166542 -82.975052 14.865803
v 32.561897 -83.019295 15.314964
v 37.166542 -83.019295 15.314964
v 32.561897 -82.975052 15.764124
v 37.166542 -82.975052 15.764124
v 32.561897 -82.844040 16.196022
v 37.166542 -82.844040 16.196022
v 32.561897 -82.631287 16.594065
v 37.166542 -82.631287 16.594065
v 32.561897 -82.344963 16.942949
v 37.166542 -82.344963 16.942949
v 32.561897 -81.996071 17.229275
v 37.166542 -81.996071 17.229275
v 32.561897 -81.598030 17.442032
v 37.166542 -81.598030 17.442032
v 32.561897 -81.166130 17.573048
v 37.166542 -81.166130 17.573048
v 32.561897 -80.716972 17.617283
v 37.166542 -80.716972 17.617283
v 32.561897 -80.267815 17.573048
v 37.166542 -80.267815 17.573048
v 32.561897 -79.835915 17.442032
v 37.166542 -79.835915 17.442032
v 32.561897 -79.437874 17.229275
v 37.166542 -79.437874 17.229275
v 32.561897 -79.088982 16.942949
v 37.166542 -79.088982 16.942949
v 32.561897 -78.802658 16.594063
v 37.166542 -78.802658 16.594063
v 32.561897 -78.589905 16.196022
v 37.166542 -78.589905 16.196022
v 32.561897 -78.458893 15.764122
v 37.166542 -78.458893 15.764122
v 32.561897 -78.414650 15.314960
v 37.166542 -78.414650 15.314960
v 32.561897 -78.458893 14.865801
v 37.166542 -78.458893 14.865801
v 32.561897 -78.589905 14.433901
v 37.166542 -78.589905 14.433901
v 32.561897 -78.802666 14.035860
v 37.166542 -78.802666 14.035860
v 32.561897 -79.088989 13.686975
v 37.166542 -79.088989 13.686975
v 32.561897 -79.437874 13.400652
v 37.166542 -79.437874 13.400652
v 32.561897 -79.835915 13.187897
v 37.166542 -79.835915 13.187897
v 32.561897 -80.267815 13.056881
v 37.166542 -80.267815 13.056881
vt 0.000000 0.000000
vt 0.000000 0.000000
vt 0.000000 0.000000
vt 0.000000 0.000000
vt 0.000000 0.000000
vt 0.000000 0.000000
vt 0.000000 0.000000
vt 0.000000 0.000000
vt 0.000000 0.000000
vt 0.000000 0.000000
vt 0.000000 0.000000
vt 0.000000 0.000000
vt 0.000000 0.000000
vt 0.000000 0.000000
vt 0.000000 0.000000
vt 0.000000 0.000000
vt 0.000000 0.000000
vt 0.000000 0.000000
vt 0.000000 0.000000
vt 0.000000 0.000000
vt 0.000000 0.000000
vt 0.000000 0.000000
vt 0.000000 0.000000
vt 0.000000 0.000000
vt 0.000000 0.000000
vt 0.000000 0.000000
vt 0.000000 0.000000
vt 0.000000 0.000000
vt 0.000000 0.000000
vt 0.000000 0.000000
vt 0.000000 0.000000
vt 0.000000 0.000000
vt 0.000000 0.000000
vt 0.000000 0.000000
vt 0.000000 0.000000
vt 0.000000 0.000000
vt 0.000000 0.000000
vt 0.000000 0.000000
vt 0.000000 0.000000
vt 0.000000 0.000000
vt 0.000000 0.000000
vt 0.000000 0.000000
vt 0.000000 0.000000
vt 0.000000 0.000000
vt 0.000000 0.000000
vt 0.000000 0.000000
vt 0.000000 0.000000
vt 0.000000 0.000000
vt 0.000000 0.000000
vt 0.000000 0.000000
vt 0.000000 0.000000
vt 0.000000 0.000000
vt 0.000000 0.000000
vt 0.000000 0.000000
vt 0.000000 0.000000
vt 0.000000 0.000000
vt 0.000000 0.000000
vt 0.000000 0.000000
vt 0.000000 0.000000
vt 0.000000 0.000000
vt 0.000000 0.000000
vt 0.529630 1.613518
vt 0.350074 0.979376
vt 0.415070 -0.518521
vt 0.000000 0.000000
vt 0.000000 0.000000
vt 0.000000 0.000000
vt 0.000000 0.000000
vt 0.000000 0.000000
vt 0.000000 0.000000
vt 0.000000 0.000000
vt 0.000000 0.000000
vt 0.000000 0.000000
vt 0.000000 0.000000
vt 0.000000 0.000000
vt 0.000000 0.000000
vt 0.000000 0.000000
vt 0.000000 0.000000
vt 0.000000 0.000000
vt 0.000000 0.000000
vt 0.000000 0.000000
vt 0.000000 0.000000
vt 0.000000 0.000000
vt 0.000000 0.000000
vt 0.000000 0.000000
vt 0.000000 0.000000
vt 0.000000 0.000000
vt 0.000000 0.000000
vt 0.000000 0.000000
vt 0.000000 0.000000
vt 0.000000 0.000000
vt 0.000000 0.000000
vt 0.000000 0.000000
vt 0.000000 0.000000
vt 0.000000 0.000000
vt 0.000000 0.000000
vt 0.000000 0.000000
vt 0.000000 0.000000
vt 0.000000 0.000000
vt 0.000000 0.000000
vt 0.000000 0.000000
vt 0.000000 0.000000
vt 0.000000 0.000000
vt 0.000000 0.000000
vt 0.000000 0.000000
vt 0.000000 0.000000
vt 0.000000 0.000000
vt 0.000000 0.000000
vt 0.000000 0.000000
vt 0.000000 0.000000
vt 0.000000 0.000000
vt 0.000000 0.000000
vt 0.000000 0.000000
vt 0.000000 0.000000
vt 0.000000 0.000000
vt 0.000000 0.000000
vt 0.000000 0.000000
vt 0.000000 0.000000
vt 0.000000 0.000000
vt 0.000000 0.000000
vt 0.000000 0.000000
vt 0.000000 0.000000
vt 0.000000 0.000000
vt 0.000000 0.000000
vt 0.000000 0.000000
vt 0.000000 0.000000
vt 0.000000 0.000000
vt 0.000000 0.000000
vt 0.000000 0.000000
vt 0.000000 0.000000
vt 0.000000 0.000000
vt 0.588148 0.115623
vt 0.593373 0.331891
vt 0.595433 0.556445
vt 0.594409 0.780654
vt 0.590145 0.995905
vt 0.582234 1.193923
vt 0.570022 1.367100
vt 0.552699 1.508780
vt 0.501077 1.677290
vt 0.469050 1.697644
vt 0.437179 1.673800
vt 0.409013 1.606672
vt 0.386408 1.498840
vt 0.369519 1.354449
vt 0.357676 1.179048
vt 0.346079 0.763107
vt 0.345302 0.538553
vt 0.347607 0.314342
vt 0.353092 0.099092
vt 0.362079 -0.098926
vt 0.375069 -0.272103
vt 0.392625 -0.413782
vt 0.441951 -0.582292
vt 0.471532 -0.602647
vt 0.500992 -0.578801
vt 0.527567 -0.511673
vt 0.549627 -0.403842
vt 0.566804 -0.259451
vt 0.579455 -0.084049
vn 0.0000 -0.0980 -0.9952
vn 0.0000 -0.2903 -0.9569
vn 0.0000 -0.4714 -0.8819
vn 0.0000 -0.6344 -0.7730
vn -0.0000 -0.7730 -0.6344
vn 0.0000 -0.8819 -0.4714
vn 0.0000 -0.9569 -0.2903
vn 0.0000 -0.9952 -0.0980
vn 0.0000 -0.9952 0.0980
vn 0.0000 -0.9569 0.2903
vn 0.0000 -0.8819 0.4714
vn 0.0000 -0.7730 0.6344
vn -0.0000 -0.6344 0.7730
vn 0.0000 -0.4714 0.8819
vn 0.0000 -0.2903 0.9569
vn 0.0000 -0.0980 0.9952
vn 0.0000 0.0980 0.9952
vn 0.0000 0.2903 0.9569
vn 0.0000 0.4714 0.8819
vn 0.0000 0.6344 0.7730
vn 0.0000 0.7730 0.6344
vn 0.0000 0.8819 0.4714
vn 0.0000 0.9569 0.2903
vn 0.0000 0.9952 0.0980
vn 0.0000 0.9952 -0.0980
vn 0.0000 0.9569 -0.2903
vn 0.0000 0.8819 -0.4714
vn 0.0000 0.7730 -0.6344
vn 0.0000 0.6344 -0.7730
vn 0.0000 0.4714 -0.8819
vn 1.0000 -0.0000 0.0000
vn 0.0000 0.2903 -0.9569
vn 0.0000 0.0980 -0.9952
vn -1.0000 0.0000 0.0000
vn 1.0000 0.0001 0.0000
vn 1.0000 -0.0001 0.0000
usemtl Bronze
s off
f 2/1/1 3/2/1 1/3/1
f 4/4/2 5/5/2 3/2/2
f 6/6/3 7/7/3 5/5/3
f 8/8/4 9/9/4 7/7/4
f 10/10/5 11/11/5 9/9/5
f 12/12/6 13/13/6 11/11/6
f 14/14/7 15/15/7 13/13/7
f 16/16/8 17/17/8 15/15/8
f 18/18/9 19/19/9 17/17/9
f 20/20/10 21/21/10 19/19/10
f 22/22/11 23/23/11 21/21/11
f 24/24/12 25/25/12 23/23/12
f 26/26/13 27/27/13 25/25/13
f 28/28/14 29/29/14 27/27/14
f 30/30/15 31/31/15 29/29/15
f 32/32/16 33/33/16 31/31/16
f 34/34/17 35/35/17 33/33/17
f 36/36/18 37/37/18 35/35/18
f 38/38/19 39/39/19 37/37/19
f 40/40/20 41/41/20 39/39/20
f 42/42/21 43/43/21 41/41/21
f 44/44/22 45/45/22 43/43/22
f 46/46/23 47/47/23 45/45/23
f 48/48/24 49/49/24 47/47/24
f 50/50/25 51/51/25 49/49/25
f 52/52/26 53/53/26 51/51/26
f 54/54/27 55/55/27 53/53/27
f 56/56/28 57/57/28 55/55/28
f 58/58/29 59/59/29 57/57/29
f 60/60/30 61/61/30 59/59/30
f 54/62/31 38/63/31 22/64/31
f 62/65/32 63/66/32 61/61/32
f 64/67/33 1/3/33 63/66/33
f 15/15/34 31/31/34 47/47/34
f 66/68/1 67/69/1 65/70/1
f 68/71/2 69/72/2 67/69/2
f 70/73/3 71/74/3 69/72/3
f 72/75/4 73/76/4 71/74/4
f 74/77/5 75/78/5 73/76/5
f 76/79/6 77/80/6 75/78/6
f 78/81/7 79/82/7 77/80/7
f 80/83/8 81/84/8 79/82/8
f 82/85/9 83/86/9 81/84/9
f 84/87/10 85/88/10 83/86/10
f 86/89/11 87/90/11 85/88/11
f 88/91/12 89/92/12 87/90/12
f 90/93/13 91/94/13 89/92/13
f 92/95/14 93/96/14 91/94/14
f 94/97/15 95/98/15 93/96/15
f 96/99/16 97/100/16 95/98/16
f 98/101/17 99/102/17 97/100/17
f 100/103/18 101/104/18 99/102/18
f 102/105/19 103/106/19 101/104/19
f 104/107/20 105/108/20 103/106/20
f 106/109/21 107/110/21 105/108/21
f 108/111/22 109/112/22 107/110/22
f 110/113/23 111/114/23 109/112/23
f 112/115/24 113/116/24 111/114/24
f 114/117/25 115/118/25 113/116/25
f 116/119/26 117/120/26 115/118/26
f 118/121/27 119/122/27 117/120/27
f 120/123/28 121/124/28 119/122/28
f 122/125/29 123/126/29 121/124/29
f 124/127/30 125/128/30 123/126/30
f 102/105/31 86/89/31 70/73/31
f 126/129/32 127/130/32 125/128/32
f 128/131/33 65/70/33 127/130/33
f 95/98/34 111/114/34 127/130/34
f 2/1/1 4/4/1 3/2/1
f 4/4/2 6/6/2 5/5/2
f 6/6/3 8/8/3 7/7/3
f 8/8/4 10/10/4 9/9/4
f 10/10/5 12/12/5 11/11/5
f 12/12/6 14/14/6 13/13/6
f 14/14/7 16/16/7 15/15/7
f 16/16/8 18/18/8 17/17/8
f 18/18/9 20/20/9 19/19/9
f 20/20/10 22/22/10 21/21/10
f 22/22/11 24/24/11 23/23/11
f 24/24/12 26/26/12 25/25/12
f 26/26/13 28/28/13 27/27/13
f 28/28/14 30/30/14 29/29/14
f 30/30/15 32/32/15 31/31/15
f 32/32/16 34/34/16 33/33/16
f 34/34/17 36/36/17 35/35/17
f 36/36/18 38/38/18 37/37/18
f 38/38/19 40/40/19 39/39/19
f 40/40/20 42/42/20 41/41/20
f 42/42/21 44/44/21 43/43/21
f 44/44/22 46/46/22 45/45/22
f 46/46/23 48/48/23 47/47/23
f 48/48/24 50/50/24 49/49/24
f 50/50/25 52/52/25 51/51/25
f 52/52/26 54/54/26 53/53/26
f 54/54/27 56/56/27 55/55/27
f 56/56/28 58/58/28 57/57/28
f 58/58/29 60/60/29 59/59/29
f 60/60/30 62/65/30 61/61/30
f 6/132/31 4/133/31 2/134/31
f 2/134/31 64/135/31 6/132/31
f 64/135/31 62/136/31 6/132/31
f 62/136/31 60/137/31 58/138/31
f 58/138/31 56/139/31 54/62/31
f 54/62/35 52/140/35 50/141/35
f 50/141/31 48/142/31 54/62/31
f 48/142/31 46/143/31 54/62/31
f 46/143/31 44/144/31 38/63/31
f 44/144/31 42/145/31 38/63/31
f 42/145/31 40/146/31 38/63/31
f 38/63/31 36/147/31 34/148/31
f 34/148/31 32/149/31 30/150/31
f 30/150/31 28/151/31 26/152/31
f 26/152/31 24/153/31 22/64/31
f 22/64/31 20/154/31 18/155/31
f 18/155/36 16/156/36 22/64/36
f 16/156/31 14/157/31 22/64/31
f 14/157/31 12/158/31 10/159/31
f 10/159/31 8/160/31 6/132/31
f 62/136/31 58/138/31 6/132/31
f 58/138/31 54/62/31 6/132/31
f 38/63/31 34/148/31 22/64/31
f 34/148/31 30/150/31 22/64/31
f 30/150/31 26/152/31 22/64/31
f 14/157/31 10/159/31 22/64/31
f 10/159/31 6/132/31 22/64/31
f 54/62/31 46/143/31 38/63/31
f 6/132/31 54/62/31 22/64/31
f 62/65/32 64/67/32 63/66/32
f 64/67/33 2/1/33 1/3/33
f 63/66/34 1/3/34 3/2/34
f 3/2/34 5/5/34 7/7/34
f 7/7/34 9/9/34 11/11/34
f 11/11/34 13/13/34 7/7/34
f 13/13/34 15/15/34 7/7/34
f 15/15/34 17/17/34 19/19/34
f 19/19/34 21/21/34 15/15/34
f 21/21/34 23/23/34 15/15/34
f 23/23/34 25/25/34 31/31/34
f 25/25/34 27/27/34 31/31/34
f 27/27/34 29/29/34 31/31/34
f 31/31/34 33/33/34 35/35/34
f 35/35/34 37/37/34 39/39/34
f 39/39/34 41/41/34 43/43/34
f 43/43/34 45/45/34 47/47/34
f 47/47/34 49/49/34 51/51/34
f 51/51/34 53/53/34 55/55/34
f 55/55/34 57/57/34 63/66/34
f 57/57/34 59/59/34 63/66/34
f 59/59/34 61/61/34 63/66/34
f 63/66/34 3/2/34 7/7/34
f 31/31/34 35/35/34 47/47/34
f 35/35/34 39/39/34 47/47/34
f 39/39/34 43/43/34 47/47/34
f 47/47/34 51/51/34 63/66/34
f 51/51/34 55/55/34 63/66/34
f 63/66/34 7/7/34 15/15/34
f 15/15/34 23/23/34 31/31/34
f 63/66/34 15/15/34 47/47/34
f 66/68/1 68/71/1 67/69/1
f 68/71/2 70/73/2 69/72/2
f 70/73/3 72/75/3 71/74/3
f 72/75/4 74/77/4 73/76/4
f 74/77/5 76/79/5 75/78/5
f 76/79/6 78/81/6 77/80/6
f 78/81/7 80/83/7 79/82/7
f 80/83/8 82/85/8 81/84/8
f 82/85/9 84/87/9 83/86/9
f 84/87/10 86/89/10 85/88/10
f 86/89/11 88/91/11 87/90/11
f 88/91/12 90/93/12 89/92/12
f 90/93/13 92/95/13 91/94/13
f 92/95/14 94/97/14 93/96/14
f 94/97/15 96/99/15 95/98/15
f 96/99/16 98/101/16 97/100/16
f 98/101/17 100/103/17 99/102/17
f 100/103/18 102/105/18 101/104/18
f 102/105/19 104/107/19 103/106/19
f 104/107/20 106/109/20 105/108/20
f 106/109/21 108/111/21 107/110/21
f 108/111/22 110/113/22 109/112/22
f 110/113/23 112/115/23 111/114/23
f 112/115/24 114/117/24 113/116/24
f 114/117/25 116/119/25 115/118/25
f 116/119/26 118/121/26 117/120/26
f 118/121/27 120/123/27 119/122/27
f 120/123/28 122/125/28 121/124/28
f 122/125/29 124/127/29 123/126/29
f 124/127/30 126/129/30 125/128/30
f 70/73/31 68/71/31 66/68/31
f 66/68/31 128/131/31 70/73/31
f 128/131/31 126/129/31 70/73/31
f 126/129/31 124/127/31 122/125/31
f 122/125/31 120/123/31 118/121/31
f 118/121/31 116/119/31 114/117/31
f 114/117/36 112/115/36 110/113/36
f 110/113/31 108/111/31 102/105/31
f 108/111/31 106/109/31 102/105/31
f 106/109/31 104/107/31 102/105/31
f 102/105/31 100/103/31 98/101/31
f 98/101/31 96/99/31 94/97/31
f 94/97/31 92/95/31 86/89/31
f 92/95/31 90/93/31 86/89/31
f 90/93/31 88/91/31 86/89/31
f 86/89/35 84/87/35 82/85/35
f 82/85/31 80/83/31 86/89/31
f 80/83/31 78/81/31 86/89/31
f 78/81/31 76/79/31 74/77/31
f 74/77/31 72/75/31 70/73/31
f 126/129/31 122/125/31 118/121/31
f 118/121/31 114/117/31 102/105/31
f 114/117/31 110/113/31 102/105/31
f 102/105/31 98/101/31 86/89/31
f 98/101/31 94/97/31 86/89/31
f 78/81/31 74/77/31 86/89/31
f 74/77/31 70/73/31 86/89/31
f 70/73/31 126/129/31 102/105/31
f 126/129/31 118/121/31 102/105/31
f 126/129/32 128/131/32 127/130/32
f 128/131/33 66/68/33 65/70/33
f 127/130/34 65/70/34 67/69/34
f 67/69/34 69/72/34 127/130/34
f 69/72/34 71/74/34 127/130/34
f 71/74/34 73/76/34 79/82/34
f 73/76/34 75/78/34 79/82/34
f 75/78/34 77/80/34 79/82/34
f 79/82/34 81/84/34 83/86/34
f 83/86/34 85/88/34 79/82/34
f 85/88/34 87/90/34 79/82/34
f 87/90/34 89/92/34 91/94/34
f 91/94/34 93/96/34 95/98/34
f 95/98/34 97/100/34 103/106/34
f 97/100/34 99/102/34 103/106/34
f 99/102/34 101/104/34 103/106/34
f 103/106/34 105/108/34 107/110/34
f 107/110/34 109/112/34 111/114/34
f 111/114/34 113/116/34 115/118/34
f 115/118/34 117/120/34 119/122/34
f 119/122/34 121/124/34 123/126/34
f 123/126/34 125/128/34 119/122/34
f 125/128/34 127/130/34 119/122/34
f 87/90/34 91/94/34 79/82/34
f 91/94/34 95/98/34 79/82/34
f 103/106/34 107/110/34 95/98/34
f 107/110/34 111/114/34 95/98/34
f 111/114/34 115/118/34 127/130/34
f 115/118/34 119/122/34 127/130/34
f 127/130/34 71/74/34 79/82/34
f 127/130/34 79/82/34 95/98/34
