# Blender v2.79 (sub 0) OBJ File: 'bookshelf_door.blend'
# www.blender.org
mtllib bookshelf_door.mtl
o Panel_Right_Cube.007
v 30.181601 175.895111 -84.266869
v 30.181602 112.696159 -84.266869
v 30.181602 105.649834 -84.266869
v 30.181604 50.089581 -84.266876
v 30.181604 41.037781 -84.266876
v 30.181606 -15.542906 -84.266884
v 30.181595 175.895111 -0.246996
v 30.181595 112.696159 -0.246996
v 30.181595 105.649834 -0.246996
v 30.181595 50.089581 -0.246996
v 30.181595 41.037781 -0.246996
v 30.181599 -15.542906 -0.247001
v -35.038868 163.864365 38.997295
vn -1.0000 0.0000 -0.0000
usemtl Glass
s off
f 7//1 2//1 8//1
f 8//1 3//1 9//1
f 9//1 4//1 10//1
f 10//1 5//1 11//1
f 11//1 6//1 12//1
f 7//1 1//1 2//1
f 8//1 2//1 3//1
f 9//1 3//1 4//1
f 10//1 4//1 5//1
f 11//1 5//1 6//1
