# Blender v2.79 (sub 0) OBJ File: 'photo.blend'
# www.blender.org
mtllib photo.mtl
o Back_Cube.001
v 5.000000 0.000000 -5.000000
v 5.000000 0.000000 5.000000
v -5.000000 0.000000 4.999999
v -4.999998 0.000000 -5.000002
v 5.000002 0.020000 -4.999997
v 4.999997 0.020000 5.000003
v -5.000002 0.020000 4.999998
v -5.000000 0.020000 -5.000000
vt -0.980195 0.993729
vt 0.019805 -0.006271
vt 0.019805 0.993729
vt -0.980195 -0.006271
vt 0.000100 0.999900
vt 0.999900 0.000100
vt 0.999900 0.999900
vt 0.000100 0.000100
vt 0.993729 1.012486
vt -0.006271 0.012487
vt 0.993729 0.012487
vt 0.019805 1.012486
vt -0.980195 0.012487
vt 0.019805 0.012487
vt 0.993729 0.012487
vt 1.993729 1.012486
vt 1.993729 0.012487
vt 0.019805 -0.987513
vt -0.980195 0.012486
vt 0.019805 0.012486
vt -0.006271 1.012486
vt -0.980195 1.012486
vt 0.993729 1.012486
vt -0.980195 -0.987513
vn 0.0000 1.0000 0.0000
vn 0.0000 -1.0000 0.0000
vn 1.0000 -0.0001 0.0000
vn -0.0000 -0.0001 1.0000
vn -1.0000 -0.0001 -0.0000
vn 0.0000 0.0001 -1.0000
vn 1.0000 0.0001 0.0000
vn -0.0000 0.0000 1.0000
usemtl Photo_front
s off
f 8/1/1 6/2/1 5/3/1
f 8/1/1 7/4/1 6/2/1
usemtl Photo_front_photo_back.bmp
f 2/5/2 4/6/2 1/7/2
f 2/5/2 3/8/2 4/6/2
usemtl Photo_front_NONE
f 5/9/3 2/10/3 1/11/3
f 6/12/4 3/13/4 2/14/4
f 3/15/5 8/16/5 4/17/5
f 1/18/6 8/19/6 5/20/6
f 5/9/7 6/21/7 2/10/7
f 6/12/8 7/22/8 3/13/8
f 3/15/5 7/23/5 8/16/5
f 1/18/6 4/24/6 8/19/6
o Front_Cube
v 5.000000 -0.010000 4.999999
v 5.000000 -0.010000 -5.000000
v -5.000001 -0.010000 -4.999999
v -4.999998 -0.010000 5.000002
v 5.000003 0.010000 4.999997
v 4.999996 0.010000 -5.000003
v -5.000002 0.010000 -4.999998
v -4.999999 0.010000 5.000000
vt 0.373373 0.376113
vt 0.626627 0.376113
vt 0.626627 0.623887
vt 0.373373 0.623887
vt 0.000000 0.940022
vt 0.031933 0.000000
vt 1.000000 0.068878
vt 0.903650 1.000000
vt 0.626745 0.375998
vt 0.626745 0.624002
vt 0.373255 0.624002
vt 0.373255 0.375998
vn 0.0000 1.0000 -0.0000
vn 0.0000 -1.0000 0.0000
vn 1.0000 -0.0001 -0.0000
vn -0.0000 -0.0001 -1.0000
vn -1.0000 -0.0001 0.0000
vn 0.0000 0.0001 1.0000
vn 1.0000 0.0001 -0.0000
vn -0.0000 0.0000 -1.0000
usemtl Photo_back
s off
f 16/25/9 13/26/9 14/27/9
f 16/25/9 14/27/9 15/28/9
usemtl Photo_back_photo_back.bmp
f 10/29/10 9/30/10 12/31/10
f 10/29/10 12/31/10 11/32/10
usemtl Photo_back_NONE
f 13/26/11 9/33/11 10/34/11
f 14/27/12 10/34/12 11/35/12
f 11/35/13 12/36/13 16/25/13
f 9/33/14 13/26/14 16/25/14
f 13/26/15 10/34/15 14/27/15
f 14/27/16 11/35/16 15/28/16
f 11/35/13 16/25/13 15/28/13
f 9/33/14 16/25/14 12/36/14
