# Blender v2.79 (sub 0) OBJ File: 'photo.blend'
# www.blender.org
mtllib Photo_Back.mtl
o Photo_Back_Cube.001
v 5.000000 0.000000 -5.000000
v 5.000000 0.000000 5.000000
v -5.000000 0.000000 4.999999
v -4.999998 0.000000 -5.000002
v 5.000002 0.020000 -4.999997
v 4.999997 0.020000 5.000003
v -5.000002 0.020000 4.999998
v -5.000000 0.020000 -5.000000
vt 0.000100 0.999900
vt 0.999900 0.000100
vt 0.999900 0.999900
vt 0.000100 0.000100
vt -0.980195 0.993729
vt 0.019805 -0.006271
vt 0.019805 0.993729
vt -0.980195 -0.006271
vt 0.993729 1.012486
vt -0.006271 0.012487
vt 0.993729 0.012487
vt 0.019805 1.012486
vt -0.980195 0.012487
vt 0.019805 0.012487
vt 0.993729 0.012487
vt 1.993729 1.012486
vt 1.993729 0.012487
vt 0.019805 -0.987513
vt -0.980195 0.012486
vt 0.019805 0.012486
vt -0.006271 1.012486
vt -0.980195 1.012486
vt 0.993729 1.012486
vt -0.980195 -0.987513
vn 0.0000 -1.0000 0.0000
vn 0.0000 1.0000 0.0000
vn 1.0000 -0.0001 0.0000
vn -0.0000 -0.0001 1.0000
vn -1.0000 -0.0001 -0.0000
vn 0.0000 0.0001 -1.0000
vn 1.0000 0.0001 0.0000
vn -0.0000 0.0000 1.0000
usemtl Photo_front
s off
f 2/1/1 4/2/1 1/3/1
f 2/1/1 3/4/1 4/2/1
usemtl Photo_front_blur_astro.bmp
f 8/5/2 6/6/2 5/7/2
f 8/5/2 7/8/2 6/6/2
usemtl Photo_front_NONE
f 5/9/3 2/10/3 1/11/3
f 6/12/4 3/13/4 2/14/4
f 3/15/5 8/16/5 4/17/5
f 1/18/6 8/19/6 5/20/6
f 5/9/7 6/21/7 2/10/7
f 6/12/8 7/22/8 3/13/8
f 3/15/5 7/23/5 8/16/5
f 1/18/6 4/24/6 8/19/6
