# Blender v2.79 (sub 0) OBJ File: 'room.blend'
# www.blender.org
mtllib room.mtl
o Cube
v -500.000000 599.000000 500.000000
v -500.000000 601.000000 500.000000
v -500.000000 599.000000 -500.000000
v -500.000000 601.000000 -500.000000
v 500.000000 599.000000 500.000000
v 500.000000 601.000000 500.000000
v 500.000000 599.000000 -500.000000
v 500.000000 601.000000 -500.000000
vn -1.0000 0.0000 0.0000
vn 0.0000 0.0000 -1.0000
vn 1.0000 0.0000 0.0000
vn 0.0000 0.0000 1.0000
vn 0.0000 -1.0000 0.0000
vn 0.0000 1.0000 0.0000
usemtl Walls
s off
f 1//1 2//1 4//1 3//1
f 3//2 4//2 8//2 7//2
f 7//3 8//3 6//3 5//3
f 5//4 6//4 2//4 1//4
f 3//5 7//5 5//5 1//5
f 8//6 4//6 2//6 6//6
o Window_Glass_Cube.008
v 499.000000 252.230301 123.502998
v 499.000000 252.230301 -278.855469
v 499.000000 524.807434 123.502998
v 499.000000 524.807434 -278.855469
v 499.000000 252.230301 -71.285660
v 499.000000 524.807434 -71.285660
v 499.000000 252.230301 -84.048431
v 499.000000 524.807434 -84.048431
vn 1.0000 0.0000 0.0000
usemtl Glass
s off
f 13//7 14//7 11//7 9//7
f 10//7 12//7 16//7 15//7
o Window_Cube.006
v 499.000000 247.811249 -284.924225
v 499.000000 534.990723 -284.924225
v 499.000000 247.811249 130.178635
v 499.000000 534.990723 130.178635
v 494.000000 534.990723 -284.924225
v 494.000000 247.811249 -284.924225
v 494.000000 247.811249 130.178635
v 494.000000 534.990723 130.178635
v 499.000000 247.811249 -77.372803
v 499.000000 534.990723 -77.372803
v 494.000000 247.811249 -77.372803
v 494.000000 534.990723 -77.372803
v 499.000000 255.112411 -284.924225
v 499.000000 255.112411 130.178635
v 494.000000 255.112411 -284.924225
v 494.000000 255.112411 130.178635
v 494.000000 255.112411 -77.372803
v 499.000000 255.112411 -77.372803
v 499.000000 247.811249 123.502998
v 499.000000 534.990723 123.502998
v 494.000000 247.811249 123.502998
v 494.000000 534.990723 123.502998
v 494.000000 255.112411 123.502998
v 499.000000 255.112411 123.502998
v 499.000000 247.811249 -278.855469
v 499.000000 534.990723 -278.855469
v 494.000000 247.811249 -278.855469
v 494.000000 534.990723 -278.855469
v 499.000000 255.112411 -278.855469
v 494.000000 255.112411 -278.855469
v 499.000000 527.689575 -284.924225
v 499.000000 527.689575 130.178635
v 494.000000 527.689575 -284.924225
v 494.000000 527.689575 130.178635
v 494.000000 527.689575 -77.372803
v 499.000000 527.689575 -77.372803
v 494.000000 527.689575 123.502998
v 499.000000 527.689575 123.502998
v 499.000000 527.689575 -278.855469
v 494.000000 527.689575 -278.855469
v 499.000000 247.811249 -71.285660
v 499.000000 534.990723 -71.285660
v 494.000000 247.811249 -71.285660
v 494.000000 534.990723 -71.285660
v 494.000000 255.112411 -71.285660
v 499.000000 255.112411 -71.285660
v 499.000000 527.689575 -71.285660
v 494.000000 527.689575 -71.285660
v 499.000000 255.112411 -84.048431
v 499.000000 247.811249 -84.048431
v 499.000000 534.990723 -84.048431
v 494.000000 247.811249 -84.048431
v 494.000000 534.990723 -84.048431
v 494.000000 255.112411 -84.048431
v 494.000000 527.689575 -84.048431
v 499.000000 527.689575 -84.048431
vn 0.0000 -1.0000 0.0000
vn 1.0000 0.0000 0.0000
vn -1.0000 0.0000 0.0000
vn 0.0000 0.0000 1.0000
vn 0.0000 1.0000 0.0000
vn 0.0000 0.0000 -1.0000
usemtl Wood
s off
f 35//8 19//8 23//8 37//8
f 54//9 36//9 20//9 48//9
f 56//10 44//10 21//10 49//10
f 48//11 20//11 24//11 50//11
f 42//12 18//12 21//12 44//12
f 29//13 17//13 22//13 31//13
f 58//12 26//12 28//12 60//12
f 64//10 60//10 28//10 51//10
f 72//9 67//9 26//9 52//9
f 66//8 25//8 27//8 68//8
f 66//9 65//9 34//9 25//9
f 59//10 61//10 33//10 27//10
f 47//13 29//13 31//13 49//13
f 19//11 30//11 32//11 23//11
f 43//10 46//10 31//10 22//10
f 35//9 40//9 30//9 19//9
f 57//9 62//9 40//9 35//9
f 23//10 32//10 39//10 37//10
f 50//10 24//10 38//10 53//10
f 20//12 36//12 38//12 24//12
f 63//9 58//9 36//9 54//9
f 57//8 35//8 37//8 59//8
f 68//10 70//10 46//10 43//10
f 17//9 29//9 45//9 41//9
f 17//8 41//8 43//8 22//8
f 47//9 18//9 42//9 55//9
f 67//12 42//12 44//12 69//12
f 71//10 69//10 44//10 56//10
f 29//9 47//9 55//9 45//9
f 32//10 50//10 53//10 39//10
f 18//13 47//13 49//13 21//13
f 65//9 72//9 52//9 34//9
f 61//10 64//10 51//10 33//10
f 30//11 48//11 50//11 32//11
f 46//10 56//10 49//10 31//10
f 40//9 54//9 48//9 30//9
f 34//9 52//9 63//9 62//9
f 25//8 57//8 59//8 27//8
f 52//9 26//9 58//9 63//9
f 25//9 34//9 62//9 57//9
f 37//10 39//10 61//10 59//10
f 53//10 38//10 60//10 64//10
f 36//12 58//12 60//12 38//12
f 33//10 51//10 71//10 70//10
f 51//10 28//10 69//10 71//10
f 26//12 67//12 69//12 28//12
f 27//10 33//10 70//10 68//10
f 41//9 45//9 65//9 66//9
f 41//8 66//8 68//8 43//8
f 55//9 42//9 67//9 72//9
o Door_Cube.005
v -499.000031 0.000000 -427.233246
v -499.000031 404.068237 -427.233246
v -499.000000 0.000000 -230.913162
v -499.000000 404.068237 -230.913177
v -489.000000 0.000000 -230.913162
v -489.000031 0.000000 -427.233246
v -489.000031 404.068237 -427.233246
v -489.000000 404.068237 -230.913177
vn 0.0000 1.0000 -0.0000
vn -1.0000 0.0000 0.0000
vn 1.0000 -0.0000 -0.0000
vn 0.0000 0.0000 -1.0000
vn 0.0000 0.0000 1.0000
vn 0.0000 -1.0000 0.0000
usemtl Wood
s off
f 74//14 76//14 80//14 79//14
f 75//15 76//15 74//15 73//15
f 78//16 79//16 80//16 77//16
f 73//17 74//17 79//17 78//17
f 76//18 75//18 77//18 80//18
f 75//19 73//19 78//19 77//19
o Walll_4_Cube.004
v -498.999969 0.000000 500.000000
v -498.999969 600.000000 500.000000
v -500.999969 0.000000 500.000000
v -500.999969 600.000000 500.000000
v -499.000031 0.000000 -500.000000
v -499.000031 600.000000 -500.000000
v -501.000031 0.000000 -500.000000
v -501.000031 600.000000 -500.000000
v -501.000031 0.000000 -427.233246
v -501.000031 600.000000 -427.233246
v -499.000031 0.000000 -427.233246
v -499.000031 600.000000 -427.233246
v -501.000000 0.000000 -223.203125
v -499.000000 600.000000 -223.203125
v -501.000000 600.000000 -223.203094
v -499.000000 0.000000 -223.203094
v -498.999969 404.068237 500.000000
v -500.999969 404.068237 500.000000
v -501.000031 404.068237 -500.000000
v -499.000031 404.068237 -500.000000
v -499.000031 404.068237 -427.233246
v -501.000031 404.068237 -427.233246
v -501.000000 404.068237 -223.203110
v -499.000000 404.068237 -223.203110
v -501.000000 600.000000 -230.913162
v -499.000000 0.000000 -230.913162
v -501.000000 0.000000 -230.913193
v -499.000000 600.000000 -230.913193
v -499.000000 404.068237 -230.913177
v -501.000000 404.068237 -230.913177
v -501.000031 600.000000 -434.881531
v -499.000031 0.000000 -434.881531
v -501.000031 0.000000 -434.881531
v -499.000031 600.000000 -434.881531
v -499.000031 404.068237 -434.881531
v -501.000031 404.068237 -434.881531
v -498.999969 414.754517 500.000000
v -500.999969 414.754517 500.000000
v -501.000031 414.754517 -500.000000
v -499.000031 414.754517 -500.000000
v -499.000031 414.754517 -427.233246
v -501.000031 414.754517 -427.233246
v -501.000000 414.754517 -223.203110
v -499.000000 414.754517 -223.203110
v -499.000000 414.754517 -230.913177
v -501.000000 414.754517 -230.913177
v -499.000031 414.754517 -434.881531
v -501.000031 414.754517 -434.881531
v -504.000031 0.000000 -434.881531
v -504.000031 0.000000 -427.233246
v -504.000031 404.068237 -427.233246
v -504.000000 0.000000 -230.913193
v -504.000000 0.000000 -223.203125
v -504.000000 404.068237 -223.203110
v -504.000031 414.754517 -427.233246
v -504.000000 414.754517 -223.203110
v -504.000000 404.068237 -230.913177
v -504.000000 414.754517 -230.913177
v -504.000031 404.068237 -434.881531
v -504.000031 414.754517 -434.881531
v -494.000031 404.068237 -427.233246
v -494.000031 0.000000 -427.233246
v -494.000000 404.068237 -223.203110
v -494.000000 0.000000 -223.203094
v -494.000031 414.754517 -427.233246
v -494.000000 414.754517 -223.203110
v -494.000000 404.068237 -230.913177
v -494.000031 404.068237 -434.881531
v -494.000000 0.000000 -230.913162
v -494.000000 414.754517 -230.913177
v -494.000031 0.000000 -434.881531
v -494.000031 414.754517 -434.881531
v -506.000031 0.000000 -434.881531
v -506.000031 0.000000 -427.233246
v -506.000031 404.068237 -427.233246
v -506.000000 0.000000 -230.913193
v -506.000000 0.000000 -223.203125
v -506.000000 404.068237 -223.203110
v -506.000031 414.754517 -427.233246
v -506.000000 414.754517 -223.203110
v -506.000000 404.068237 -230.913177
v -506.000000 414.754517 -230.913177
v -506.000031 404.068237 -434.881531
v -506.000031 414.754517 -434.881531
vn 0.0000 0.0000 1.0000
vn -1.0000 0.0000 0.0000
vn 0.0000 0.0000 -1.0000
vn 1.0000 0.0000 -0.0000
vn 0.0000 -1.0000 0.0000
vn 0.0000 1.0000 0.0000
usemtl Walls
s off
f 117//20 82//20 84//20 118//20
f 128//21 111//21 88//21 119//21
f 119//22 88//22 86//22 120//22
f 124//23 94//23 82//23 117//23
f 113//24 87//24 85//24 112//24
f 95//25 84//25 82//25 94//25
f 111//25 90//25 92//25 114//25
f 127//23 114//23 92//23 121//23
f 126//21 105//21 90//21 122//21
f 118//21 84//21 95//21 123//21
f 83//24 93//24 96//24 81//24
f 105//25 95//25 94//25 108//25
f 125//23 108//23 94//23 124//23
f 127//25 121//25 145//25 152//25
f 83//21 98//21 103//21 93//21
f 112//22 115//22 148//22 151//22
f 96//23 104//23 97//23 81//23
f 87//22 99//22 100//22 85//22
f 113//21 116//21 99//21 87//21
f 81//20 97//20 98//20 83//20
f 102//24 110//24 137//24 131//24
f 121//23 92//23 108//23 125//23
f 90//25 105//25 108//25 92//25
f 123//21 95//21 105//21 126//21
f 93//24 107//24 106//24 96//24
f 93//20 103//20 134//20 133//20
f 85//23 100//23 115//23 112//23
f 120//23 86//23 114//23 127//23
f 88//25 111//25 114//25 86//25
f 89//24 113//24 112//24 91//24
f 122//21 90//21 111//21 128//21
f 103//20 123//20 136//20 134//20
f 100//23 120//23 127//23 115//23
f 126//25 122//25 135//25 138//25
f 96//24 106//24 149//24 144//24
f 121//25 125//25 150//25 145//25
f 98//21 118//21 123//21 103//21
f 116//22 113//22 129//22 139//22
f 104//20 96//20 144//20 143//20
f 104//23 124//23 117//23 97//23
f 99//22 119//22 120//22 100//22
f 116//21 128//21 119//21 99//21
f 97//20 117//20 118//20 98//20
f 134//20 136//20 160//20 158//20
f 138//25 135//25 159//25 162//25
f 137//22 132//22 156//22 161//22
f 130//20 131//20 155//20 154//20
f 139//22 129//22 153//22 163//22
f 122//25 128//25 140//25 135//25
f 128//22 116//22 139//22 140//22
f 110//22 107//22 132//22 137//22
f 89//20 102//20 131//20 130//20
f 123//25 126//25 138//25 136//25
f 113//24 89//24 130//24 129//24
f 107//24 93//24 133//24 132//24
f 149//23 147//23 143//23 144//23
f 151//23 148//23 141//23 142//23
f 141//23 145//23 150//23 147//23
f 147//23 150//23 146//23 143//23
f 148//23 152//23 145//23 141//23
f 124//20 104//20 143//20 146//20
f 101//20 91//20 142//20 141//20
f 125//25 124//25 146//25 150//25
f 91//24 112//24 151//24 142//24
f 115//22 127//22 152//22 148//22
f 106//22 109//22 147//22 149//22
f 109//24 101//24 141//24 147//24
f 157//21 158//21 161//21 156//21
f 154//21 155//21 163//21 153//21
f 155//21 159//21 164//21 163//21
f 158//21 160//21 162//21 161//21
f 161//21 162//21 159//21 155//21
f 140//22 139//22 163//22 164//22
f 132//24 133//24 157//24 156//24
f 131//24 137//24 161//24 155//24
f 135//25 140//25 164//25 159//25
f 133//20 134//20 158//20 157//20
f 129//24 130//24 154//24 153//24
f 136//25 138//25 162//25 160//25
o Wall_2_Cube.003
v 501.000031 0.000000 500.000000
v 501.000031 600.000000 500.000000
v 499.000031 0.000000 500.000000
v 499.000031 600.000000 500.000000
v 500.999969 0.000000 -500.000000
v 500.999969 600.000000 -500.000000
v 498.999969 0.000000 -500.000000
v 498.999969 600.000000 -500.000000
v 499.000000 0.000000 -284.924225
v 499.000000 600.000000 -284.924225
v 501.000000 0.000000 -284.924225
v 501.000000 600.000000 -284.924225
v 501.000031 244.929138 500.000000
v 499.000031 244.929138 500.000000
v 498.999969 244.929138 -500.000000
v 500.999969 244.929138 -500.000000
v 501.000000 244.929138 -284.924225
v 499.000000 244.929138 -284.924225
v 501.000031 532.108643 500.000000
v 499.000031 532.108643 500.000000
v 498.999969 532.108643 -500.000000
v 500.999969 532.108643 -500.000000
v 501.000000 532.108643 -284.924225
v 499.000000 532.108643 -284.924225
v 499.000000 0.000000 130.178665
v 501.000000 600.000000 130.178665
v 499.000000 600.000000 130.178635
v 501.000000 0.000000 130.178635
v 499.000000 244.929138 130.178635
v 501.000000 244.929138 130.178665
v 499.000000 532.108643 130.178635
v 501.000000 532.108643 130.178665
v 499.000031 228.221344 500.000000
v 498.999969 228.221344 -500.000000
v 500.999969 228.221344 -500.000000
v 501.000000 228.221344 -284.924225
v 499.000000 228.221344 -284.924225
v 501.000031 228.221344 500.000000
v 501.000000 228.221344 130.178665
v 499.000000 228.221344 130.178635
v 499.000000 600.000000 -295.691376
v 501.000000 0.000000 -295.691376
v 499.000000 0.000000 -295.691376
v 501.000000 600.000000 -295.691376
v 501.000000 244.929138 -295.691376
v 499.000000 244.929138 -295.691376
v 501.000000 532.108643 -295.691376
v 499.000000 532.108643 -295.691376
v 499.000000 228.221344 -295.691376
v 501.000000 228.221344 -295.691376
v 499.000000 0.000000 141.561432
v 501.000000 600.000000 141.561432
v 501.000000 244.929138 141.561432
v 501.000000 532.108643 141.561432
v 499.000000 600.000000 141.561401
v 501.000000 0.000000 141.561401
v 499.000000 244.929138 141.561401
v 499.000000 532.108643 141.561401
v 499.000000 228.221344 141.561401
v 501.000000 228.221344 141.561432
v 494.000000 532.108643 -284.924225
v 494.000000 244.929138 -284.924225
v 494.000000 244.929138 130.178635
v 494.000000 532.108643 130.178635
v 494.000000 532.108643 -284.924225
v 494.000000 244.929138 -284.924225
v 494.000000 244.929138 -295.691376
v 494.000000 532.108643 -295.691376
v 501.000031 544.366516 500.000000
v 499.000031 544.366516 500.000000
v 498.999969 544.366516 -500.000000
v 500.999969 544.366516 -500.000000
v 501.000000 544.366516 -284.924225
v 499.000000 544.366516 -284.924225
v 499.000000 544.366516 130.178635
v 501.000000 544.366516 130.178665
v 501.000000 544.366516 -295.691376
v 499.000000 544.366516 -295.691376
v 499.000000 544.366516 141.561401
v 501.000000 544.366516 141.561432
v 494.000000 544.366516 -284.924225
v 494.000000 532.108643 -284.924225
v 494.000000 532.108643 130.178635
v 494.000000 244.929138 141.561401
v 494.000000 244.929138 130.178635
v 494.000000 532.108643 141.561401
v 494.000000 544.366516 130.178635
v 494.000000 532.108643 -295.691376
v 494.000000 544.366516 -295.691376
v 494.000000 544.366516 141.561401
v 474.000000 244.929138 130.178635
v 474.000000 244.929138 -284.924225
v 474.000000 244.929138 141.561401
v 474.000000 228.221344 -284.924225
v 474.000000 228.221344 130.178635
v 474.000000 228.221344 141.561401
v 474.000000 244.929138 -295.691376
v 474.000000 228.221344 -295.691376
vn 0.0000 0.0000 1.0000
vn -1.0000 0.0000 0.0000
vn 0.0000 0.0000 -1.0000
vn 1.0000 0.0000 -0.0000
vn 0.0000 -1.0000 0.0000
vn 0.0000 1.0000 0.0000
usemtl Walls
s off
f 233//26 166//26 168//26 234//26
f 242//27 205//27 172//27 235//27
f 235//28 172//28 170//28 236//28
f 244//29 216//29 166//29 233//29
f 207//30 171//30 169//30 206//30
f 219//31 168//31 166//31 216//31
f 205//31 174//31 176//31 208//31
f 189//30 173//30 175//30 192//30
f 241//29 208//29 176//29 237//29
f 239//27 191//27 174//27 238//27
f 221//31 193//31 255//31 257//31
f 214//29 209//29 181//29 200//29
f 224//29 217//29 177//29 202//29
f 198//28 179//28 180//28 199//28
f 213//27 210//27 179//27 198//27
f 202//26 177//26 178//26 197//26
f 182//30 193//30 227//30 226//30
f 209//29 211//29 187//29 181//29
f 217//29 218//29 183//29 177//29
f 179//28 185//28 186//28 180//28
f 210//27 212//27 185//27 179//27
f 177//26 183//26 184//26 178//26
f 222//26 243//26 254//26 250//26
f 200//29 181//29 194//29 203//29
f 193//31 182//31 256//31 255//31
f 243//27 219//27 191//27 239//27
f 215//30 189//30 192//30 220//30
f 174//31 191//31 190//31 176//31
f 237//29 176//29 190//29 240//29
f 215//27 223//27 204//27 189//27
f 175//29 200//29 203//29 192//29
f 165//26 202//26 197//26 167//26
f 207//27 213//27 198//27 171//27
f 171//28 198//28 199//28 169//28
f 220//29 224//29 202//29 165//29
f 206//29 214//29 200//29 175//29
f 189//27 204//27 201//27 173//27
f 169//29 199//29 214//29 206//29
f 173//27 201//27 213//27 207//27
f 210//30 182//30 230//30 231//30
f 180//29 186//29 211//29 209//29
f 182//31 210//31 261//31 256//31
f 199//29 180//29 209//29 214//29
f 236//29 170//29 208//29 241//29
f 172//31 205//31 208//31 170//31
f 173//30 207//30 206//30 175//30
f 238//27 174//27 205//27 242//27
f 192//29 203//29 224//29 220//29
f 167//27 197//27 223//27 215//27
f 167//30 215//30 220//30 165//30
f 234//27 168//27 219//27 243//27
f 197//27 178//27 221//27 223//27
f 178//27 184//27 222//27 221//27
f 194//29 196//29 218//29 217//29
f 203//29 194//29 217//29 224//29
f 191//31 219//31 216//31 190//31
f 240//29 190//29 216//29 244//29
f 193//26 195//26 228//26 227//26
f 195//31 188//31 225//31 228//31
f 188//28 182//28 226//28 225//28
f 230//27 229//27 232//27 231//27
f 212//28 210//28 231//28 232//28
f 182//26 188//26 229//26 230//26
f 188//31 212//31 232//31 229//31
f 196//29 240//29 244//29 218//29
f 184//27 234//27 243//27 222//27
f 242//28 212//28 252//28 253//28
f 186//29 236//29 241//29 211//29
f 187//29 237//29 240//29 196//29
f 238//31 242//31 253//31 245//31
f 243//31 239//31 251//31 254//31
f 211//29 241//29 237//29 187//29
f 218//29 244//29 233//29 183//29
f 185//28 235//28 236//28 186//28
f 212//27 242//27 235//27 185//27
f 183//26 233//26 234//26 184//26
f 248//27 250//27 247//27 249//27
f 246//27 245//27 253//27 252//27
f 250//27 254//27 251//27 247//27
f 247//27 251//27 245//27 246//27
f 239//31 238//31 245//31 251//31
f 193//30 221//30 248//30 249//30
f 188//30 195//30 247//30 246//30
f 212//30 188//30 246//30 252//30
f 195//28 193//28 249//28 247//28
f 221//26 222//26 250//26 248//26
f 259//27 255//27 256//27 258//27
f 260//27 257//27 255//27 259//27
f 258//27 256//27 261//27 262//27
f 210//28 213//28 262//28 261//28
f 204//30 223//30 260//30 259//30
f 223//26 221//26 257//26 260//26
f 201//30 204//30 259//30 258//30
f 213//30 201//30 258//30 262//30
o Wall_1_Cube.002
v -500.000000 0.000000 -499.000000
v -500.000000 600.000000 -499.000000
v -500.000000 0.000000 -501.000000
v -500.000000 600.000000 -501.000000
v 500.000000 0.000000 -499.000000
v 500.000000 600.000000 -499.000000
v 500.000000 0.000000 -501.000000
v 500.000000 600.000000 -501.000000
vn -1.0000 0.0000 0.0000
vn 0.0000 0.0000 -1.0000
vn 1.0000 0.0000 0.0000
vn 0.0000 0.0000 1.0000
vn 0.0000 -1.0000 0.0000
vn 0.0000 1.0000 0.0000
usemtl Walls
s off
f 263//32 264//32 266//32 265//32
f 265//33 266//33 270//33 269//33
f 269//34 270//34 268//34 267//34
f 267//35 268//35 264//35 263//35
f 265//36 269//36 267//36 263//36
f 270//37 266//37 264//37 268//37
o Wall_3_Cube.001
v -500.000000 0.000000 501.000000
v -500.000000 600.000000 501.000000
v -500.000000 0.000000 499.000000
v -500.000000 600.000000 499.000000
v 500.000000 0.000000 501.000000
v 500.000000 600.000000 501.000000
v 500.000000 0.000000 499.000000
v 500.000000 600.000000 499.000000
vn -1.0000 0.0000 0.0000
vn 0.0000 0.0000 -1.0000
vn 1.0000 0.0000 0.0000
vn 0.0000 0.0000 1.0000
vn 0.0000 -1.0000 0.0000
vn 0.0000 1.0000 0.0000
usemtl Walls
s off
f 271//38 272//38 274//38 273//38
f 273//39 274//39 278//39 277//39
f 277//40 278//40 276//40 275//40
f 275//41 276//41 272//41 271//41
f 273//42 277//42 275//42 271//42
f 278//43 274//43 272//43 276//43
o Floor_Plane
v -500.000000 0.000000 500.000000
v 500.000000 0.000000 500.000000
v -500.000000 0.000000 -500.000000
v 500.000000 0.000000 -500.000000
vn 0.0000 1.0000 0.0000
usemtl Wood
s off
f 279//44 280//44 282//44 281//44
