# Blender v2.79 (sub 0) OBJ File: 'room.blend'
# www.blender.org
mtllib room.mtl
o Cube
v -500.000000 599.000000 500.000000
v -500.000000 601.000000 500.000000
v -500.000000 599.000000 -500.000000
v -500.000000 601.000000 -500.000000
v 500.000000 599.000000 500.000000
v 500.000000 601.000000 500.000000
v 500.000000 599.000000 -500.000000
v 500.000000 601.000000 -500.000000
vn -1.0000 0.0000 0.0000
vn 0.0000 0.0000 -1.0000
vn 1.0000 0.0000 0.0000
vn 0.0000 0.0000 1.0000
vn 0.0000 -1.0000 0.0000
vn 0.0000 1.0000 0.0000
usemtl Walls
s off
f 2//1 3//1 1//1
f 4//2 7//2 3//2
f 8//3 5//3 7//3
f 6//4 1//4 5//4
f 7//5 1//5 3//5
f 4//6 6//6 8//6
f 2//1 4//1 3//1
f 4//2 8//2 7//2
f 8//3 6//3 5//3
f 6//4 2//4 1//4
f 7//5 5//5 1//5
f 4//6 2//6 6//6
o Window_Glass_Cube.008
v 499.000000 252.230301 123.502998
v 499.000000 252.230301 -278.855469
v 499.000000 524.807434 123.502998
v 499.000000 524.807434 -278.855469
v 499.000000 252.230301 -71.285660
v 499.000000 524.807434 -71.285660
v 499.000000 252.230301 -84.048431
v 499.000000 524.807434 -84.048431
vn 1.0000 0.0000 0.0000
usemtl Glass
s off
f 14//7 9//7 13//7
f 12//7 15//7 10//7
f 14//7 11//7 9//7
f 12//7 16//7 15//7
o Window_Cube.006
v 499.000000 247.811249 -284.924225
v 499.000000 534.990723 -284.924225
v 499.000000 247.811249 130.178635
v 499.000000 534.990723 130.178635
v 494.000000 534.990723 -284.924225
v 494.000000 247.811249 -284.924225
v 494.000000 247.811249 130.178635
v 494.000000 534.990723 130.178635
v 499.000000 247.811249 -77.372803
v 499.000000 534.990723 -77.372803
v 494.000000 247.811249 -77.372803
v 494.000000 534.990723 -77.372803
v 499.000000 255.112411 -284.924225
v 499.000000 255.112411 130.178635
v 494.000000 255.112411 -284.924225
v 494.000000 255.112411 130.178635
v 494.000000 255.112411 -77.372803
v 499.000000 255.112411 -77.372803
v 499.000000 247.811249 123.502998
v 499.000000 534.990723 123.502998
v 494.000000 247.811249 123.502998
v 494.000000 534.990723 123.502998
v 494.000000 255.112411 123.502998
v 499.000000 255.112411 123.502998
v 499.000000 247.811249 -278.855469
v 499.000000 534.990723 -278.855469
v 494.000000 247.811249 -278.855469
v 494.000000 534.990723 -278.855469
v 499.000000 255.112411 -278.855469
v 494.000000 255.112411 -278.855469
v 499.000000 527.689575 -284.924225
v 499.000000 527.689575 130.178635
v 494.000000 527.689575 -284.924225
v 494.000000 527.689575 130.178635
v 494.000000 527.689575 -77.372803
v 499.000000 527.689575 -77.372803
v 494.000000 527.689575 123.502998
v 499.000000 527.689575 123.502998
v 499.000000 527.689575 -278.855469
v 494.000000 527.689575 -278.855469
v 499.000000 247.811249 -71.285660
v 499.000000 534.990723 -71.285660
v 494.000000 247.811249 -71.285660
v 494.000000 534.990723 -71.285660
v 494.000000 255.112411 -71.285660
v 499.000000 255.112411 -71.285660
v 499.000000 527.689575 -71.285660
v 494.000000 527.689575 -71.285660
v 499.000000 255.112411 -84.048431
v 499.000000 247.811249 -84.048431
v 499.000000 534.990723 -84.048431
v 494.000000 247.811249 -84.048431
v 494.000000 534.990723 -84.048431
v 494.000000 255.112411 -84.048431
v 494.000000 527.689575 -84.048431
v 499.000000 527.689575 -84.048431
vn 0.0000 -1.0000 0.0000
vn 1.0000 0.0000 0.0000
vn -1.0000 0.0000 0.0000
vn 0.0000 0.0000 1.0000
vn 0.0000 1.0000 0.0000
vn 0.0000 0.0000 -1.0000
usemtl Wood
s off
f 19//8 37//8 35//8
f 36//9 48//9 54//9
f 44//10 49//10 56//10
f 20//11 50//11 48//11
f 18//12 44//12 42//12
f 17//13 31//13 29//13
f 26//12 60//12 58//12
f 60//10 51//10 64//10
f 67//9 52//9 72//9
f 25//8 68//8 66//8
f 65//9 25//9 66//9
f 61//10 27//10 59//10
f 29//13 49//13 47//13
f 30//11 23//11 19//11
f 46//10 22//10 43//10
f 40//9 19//9 35//9
f 62//9 35//9 57//9
f 32//10 37//10 23//10
f 24//10 53//10 50//10
f 36//12 24//12 20//12
f 58//9 54//9 63//9
f 35//8 59//8 57//8
f 70//10 43//10 68//10
f 29//9 41//9 17//9
f 41//8 22//8 17//8
f 18//9 55//9 47//9
f 42//12 69//12 67//12
f 69//10 56//10 71//10
f 47//9 45//9 29//9
f 50//10 39//10 32//10
f 47//13 21//13 18//13
f 72//9 34//9 65//9
f 64//10 33//10 61//10
f 48//11 32//11 30//11
f 56//10 31//10 46//10
f 54//9 30//9 40//9
f 52//9 62//9 34//9
f 57//8 27//8 25//8
f 26//9 63//9 52//9
f 34//9 57//9 25//9
f 39//10 59//10 37//10
f 38//10 64//10 53//10
f 58//12 38//12 36//12
f 51//10 70//10 33//10
f 28//10 71//10 51//10
f 67//12 28//12 26//12
f 33//10 68//10 27//10
f 45//9 66//9 41//9
f 66//8 43//8 41//8
f 42//9 72//9 55//9
f 19//8 23//8 37//8
f 36//9 20//9 48//9
f 44//10 21//10 49//10
f 20//11 24//11 50//11
f 18//12 21//12 44//12
f 17//13 22//13 31//13
f 26//12 28//12 60//12
f 60//10 28//10 51//10
f 67//9 26//9 52//9
f 25//8 27//8 68//8
f 65//9 34//9 25//9
f 61//10 33//10 27//10
f 29//13 31//13 49//13
f 30//11 32//11 23//11
f 46//10 31//10 22//10
f 40//9 30//9 19//9
f 62//9 40//9 35//9
f 32//10 39//10 37//10
f 24//10 38//10 53//10
f 36//12 38//12 24//12
f 58//9 36//9 54//9
f 35//8 37//8 59//8
f 70//10 46//10 43//10
f 29//9 45//9 41//9
f 41//8 43//8 22//8
f 18//9 42//9 55//9
f 42//12 44//12 69//12
f 69//10 44//10 56//10
f 47//9 55//9 45//9
f 50//10 53//10 39//10
f 47//13 49//13 21//13
f 72//9 52//9 34//9
f 64//10 51//10 33//10
f 48//11 50//11 32//11
f 56//10 49//10 31//10
f 54//9 48//9 30//9
f 52//9 63//9 62//9
f 57//8 59//8 27//8
f 26//9 58//9 63//9
f 34//9 62//9 57//9
f 39//10 61//10 59//10
f 38//10 60//10 64//10
f 58//12 60//12 38//12
f 51//10 71//10 70//10
f 28//10 69//10 71//10
f 67//12 69//12 28//12
f 33//10 70//10 68//10
f 45//9 65//9 66//9
f 66//8 68//8 43//8
f 42//9 67//9 72//9
o Door_Cube.005
v -499.000031 0.000000 -427.233246
v -499.000031 404.068237 -427.233246
v -499.000000 0.000000 -230.913162
v -499.000000 404.068237 -230.913177
v -489.000000 0.000000 -230.913162
v -489.000031 0.000000 -427.233246
v -489.000031 404.068237 -427.233246
v -489.000000 404.068237 -230.913177
vn 0.0000 1.0000 0.0000
vn -1.0000 0.0000 0.0000
vn 1.0000 0.0000 -0.0000
vn 0.0000 0.0000 -1.0000
vn 0.0000 0.0000 1.0000
vn 0.0000 -1.0000 0.0000
usemtl Wood
s off
f 76//14 79//14 74//14
f 76//15 73//15 75//15
f 79//16 77//16 78//16
f 74//17 78//17 73//17
f 75//18 80//18 76//18
f 73//19 77//19 75//19
f 76//14 80//14 79//14
f 76//15 74//15 73//15
f 79//16 80//16 77//16
f 74//17 79//17 78//17
f 75//18 77//18 80//18
f 73//19 78//19 77//19
o Walll_4_Cube.004
v -498.999969 0.000000 500.000000
v -498.999969 600.000000 500.000000
v -500.999969 0.000000 500.000000
v -500.999969 600.000000 500.000000
v -499.000031 0.000000 -500.000000
v -499.000031 600.000000 -500.000000
v -501.000031 0.000000 -500.000000
v -501.000031 600.000000 -500.000000
v -501.000031 0.000000 -427.233246
v -501.000031 600.000000 -427.233246
v -499.000031 0.000000 -427.233246
v -499.000031 600.000000 -427.233246
v -501.000000 0.000000 -223.203125
v -499.000000 600.000000 -223.203125
v -501.000000 600.000000 -223.203094
v -499.000000 0.000000 -223.203094
v -498.999969 404.068237 500.000000
v -500.999969 404.068237 500.000000
v -501.000031 404.068237 -500.000000
v -499.000031 404.068237 -500.000000
v -499.000031 404.068237 -427.233246
v -501.000031 404.068237 -427.233246
v -501.000000 404.068237 -223.203110
v -499.000000 404.068237 -223.203110
v -501.000000 600.000000 -230.913162
v -499.000000 0.000000 -230.913162
v -501.000000 0.000000 -230.913193
v -499.000000 600.000000 -230.913193
v -499.000000 404.068237 -230.913177
v -501.000000 404.068237 -230.913177
v -501.000031 600.000000 -434.881531
v -499.000031 0.000000 -434.881531
v -501.000031 0.000000 -434.881531
v -499.000031 600.000000 -434.881531
v -499.000031 404.068237 -434.881531
v -501.000031 404.068237 -434.881531
v -498.999969 414.754517 500.000000
v -500.999969 414.754517 500.000000
v -501.000031 414.754517 -500.000000
v -499.000031 414.754517 -500.000000
v -499.000031 414.754517 -427.233246
v -501.000031 414.754517 -427.233246
v -501.000000 414.754517 -223.203110
v -499.000000 414.754517 -223.203110
v -499.000000 414.754517 -230.913177
v -501.000000 414.754517 -230.913177
v -499.000031 414.754517 -434.881531
v -501.000031 414.754517 -434.881531
v -504.000031 0.000000 -434.881531
v -504.000031 0.000000 -427.233246
v -504.000031 404.068237 -427.233246
v -504.000000 0.000000 -230.913193
v -504.000000 0.000000 -223.203125
v -504.000000 404.068237 -223.203110
v -504.000031 414.754517 -427.233246
v -504.000000 414.754517 -223.203110
v -504.000000 404.068237 -230.913177
v -504.000000 414.754517 -230.913177
v -504.000031 404.068237 -434.881531
v -504.000031 414.754517 -434.881531
v -494.000031 404.068237 -427.233246
v -494.000031 0.000000 -427.233246
v -494.000000 404.068237 -223.203110
v -494.000000 0.000000 -223.203094
v -494.000031 414.754517 -427.233246
v -494.000000 414.754517 -223.203110
v -494.000000 404.068237 -230.913177
v -494.000031 404.068237 -434.881531
v -494.000000 0.000000 -230.913162
v -494.000000 414.754517 -230.913177
v -494.000031 0.000000 -434.881531
v -494.000031 414.754517 -434.881531
v -506.000031 0.000000 -434.881531
v -506.000031 0.000000 -427.233246
v -506.000031 404.068237 -427.233246
v -506.000000 0.000000 -230.913193
v -506.000000 0.000000 -223.203125
v -506.000000 404.068237 -223.203110
v -506.000031 414.754517 -427.233246
v -506.000000 414.754517 -223.203110
v -506.000000 404.068237 -230.913177
v -506.000000 414.754517 -230.913177
v -506.000031 404.068237 -434.881531
v -506.000031 414.754517 -434.881531
vn 0.0000 0.0000 1.0000
vn -1.0000 0.0000 0.0000
vn 0.0000 0.0000 -1.0000
vn 1.0000 0.0000 -0.0000
vn 0.0000 -1.0000 0.0000
vn 0.0000 1.0000 0.0000
usemtl Walls
s off
f 82//20 118//20 117//20
f 111//21 119//21 128//21
f 88//22 120//22 119//22
f 94//23 117//23 124//23
f 87//24 112//24 113//24
f 84//25 94//25 95//25
f 90//25 114//25 111//25
f 114//23 121//23 127//23
f 105//21 122//21 126//21
f 84//21 123//21 118//21
f 93//24 81//24 83//24
f 95//25 108//25 105//25
f 108//23 124//23 125//23
f 121//25 152//25 127//25
f 98//21 93//21 83//21
f 115//22 151//22 112//22
f 104//23 81//23 96//23
f 99//22 85//22 87//22
f 116//21 87//21 113//21
f 97//20 83//20 81//20
f 110//24 131//24 102//24
f 92//23 125//23 121//23
f 105//25 92//25 90//25
f 95//21 126//21 123//21
f 107//24 96//24 93//24
f 103//20 133//20 93//20
f 100//23 112//23 85//23
f 86//23 127//23 120//23
f 111//25 86//25 88//25
f 113//24 91//24 89//24
f 90//21 128//21 122//21
f 123//20 134//20 103//20
f 120//23 115//23 100//23
f 122//25 138//25 126//25
f 106//24 144//24 96//24
f 125//25 145//25 121//25
f 118//21 103//21 98//21
f 113//22 139//22 116//22
f 96//20 143//20 104//20
f 124//23 97//23 104//23
f 119//22 100//22 99//22
f 128//21 99//21 116//21
f 117//20 98//20 97//20
f 136//20 158//20 134//20
f 135//25 162//25 138//25
f 132//22 161//22 137//22
f 131//20 154//20 130//20
f 129//22 163//22 139//22
f 128//25 135//25 122//25
f 116//22 140//22 128//22
f 107//22 137//22 110//22
f 102//20 130//20 89//20
f 126//25 136//25 123//25
f 89//24 129//24 113//24
f 93//24 132//24 107//24
f 149//23 143//23 144//23
f 148//23 142//23 151//23
f 145//23 147//23 141//23
f 150//23 143//23 147//23
f 152//23 141//23 148//23
f 104//20 146//20 124//20
f 91//20 141//20 101//20
f 124//25 150//25 125//25
f 112//24 142//24 91//24
f 127//22 148//22 115//22
f 109//22 149//22 106//22
f 101//24 147//24 109//24
f 157//21 161//21 156//21
f 155//21 153//21 154//21
f 159//21 163//21 155//21
f 160//21 161//21 158//21
f 162//21 155//21 161//21
f 139//22 164//22 140//22
f 133//24 156//24 132//24
f 137//24 155//24 131//24
f 140//25 159//25 135//25
f 134//20 157//20 133//20
f 130//24 153//24 129//24
f 138//25 160//25 136//25
f 82//20 84//20 118//20
f 111//21 88//21 119//21
f 88//22 86//22 120//22
f 94//23 82//23 117//23
f 87//24 85//24 112//24
f 84//25 82//25 94//25
f 90//25 92//25 114//25
f 114//23 92//23 121//23
f 105//21 90//21 122//21
f 84//21 95//21 123//21
f 93//24 96//24 81//24
f 95//25 94//25 108//25
f 108//23 94//23 124//23
f 121//25 145//25 152//25
f 98//21 103//21 93//21
f 115//22 148//22 151//22
f 104//23 97//23 81//23
f 99//22 100//22 85//22
f 116//21 99//21 87//21
f 97//20 98//20 83//20
f 110//24 137//24 131//24
f 92//23 108//23 125//23
f 105//25 108//25 92//25
f 95//21 105//21 126//21
f 107//24 106//24 96//24
f 103//20 134//20 133//20
f 100//23 115//23 112//23
f 86//23 114//23 127//23
f 111//25 114//25 86//25
f 113//24 112//24 91//24
f 90//21 111//21 128//21
f 123//20 136//20 134//20
f 120//23 127//23 115//23
f 122//25 135//25 138//25
f 106//24 149//24 144//24
f 125//25 150//25 145//25
f 118//21 123//21 103//21
f 113//22 129//22 139//22
f 96//20 144//20 143//20
f 124//23 117//23 97//23
f 119//22 120//22 100//22
f 128//21 119//21 99//21
f 117//20 118//20 98//20
f 136//20 160//20 158//20
f 135//25 159//25 162//25
f 132//22 156//22 161//22
f 131//20 155//20 154//20
f 129//22 153//22 163//22
f 128//25 140//25 135//25
f 116//22 139//22 140//22
f 107//22 132//22 137//22
f 102//20 131//20 130//20
f 126//25 138//25 136//25
f 89//24 130//24 129//24
f 93//24 133//24 132//24
f 149//23 147//23 143//23
f 148//23 141//23 142//23
f 145//23 150//23 147//23
f 150//23 146//23 143//23
f 152//23 145//23 141//23
f 104//20 143//20 146//20
f 91//20 142//20 141//20
f 124//25 146//25 150//25
f 112//24 151//24 142//24
f 127//22 152//22 148//22
f 109//22 147//22 149//22
f 101//24 141//24 147//24
f 157//21 158//21 161//21
f 155//21 163//21 153//21
f 159//21 164//21 163//21
f 160//21 162//21 161//21
f 162//21 159//21 155//21
f 139//22 163//22 164//22
f 133//24 157//24 156//24
f 137//24 161//24 155//24
f 140//25 164//25 159//25
f 134//20 158//20 157//20
f 130//24 154//24 153//24
f 138//25 162//25 160//25
o Wall_2_Cube.003
v 501.000031 0.000000 500.000000
v 501.000031 600.000000 500.000000
v 499.000031 0.000000 500.000000
v 499.000031 600.000000 500.000000
v 500.999969 0.000000 -500.000000
v 500.999969 600.000000 -500.000000
v 498.999969 0.000000 -500.000000
v 498.999969 600.000000 -500.000000
v 499.000000 0.000000 -284.924225
v 499.000000 600.000000 -284.924225
v 501.000000 0.000000 -284.924225
v 501.000000 600.000000 -284.924225
v 501.000031 244.929138 500.000000
v 499.000031 244.929138 500.000000
v 498.999969 244.929138 -500.000000
v 500.999969 244.929138 -500.000000
v 501.000000 244.929138 -284.924225
v 499.000000 244.929138 -284.924225
v 501.000031 532.108643 500.000000
v 499.000031 532.108643 500.000000
v 498.999969 532.108643 -500.000000
v 500.999969 532.108643 -500.000000
v 501.000000 532.108643 -284.924225
v 499.000000 532.108643 -284.924225
v 499.000000 0.000000 130.178665
v 501.000000 600.000000 130.178665
v 499.000000 600.000000 130.178635
v 501.000000 0.000000 130.178635
v 499.000000 244.929138 130.178635
v 501.000000 244.929138 130.178665
v 499.000000 532.108643 130.178635
v 501.000000 532.108643 130.178665
v 499.000031 228.221344 500.000000
v 498.999969 228.221344 -500.000000
v 500.999969 228.221344 -500.000000
v 501.000000 228.221344 -284.924225
v 499.000000 228.221344 -284.924225
v 501.000031 228.221344 500.000000
v 501.000000 228.221344 130.178665
v 499.000000 228.221344 130.178635
v 499.000000 600.000000 -295.691376
v 501.000000 0.000000 -295.691376
v 499.000000 0.000000 -295.691376
v 501.000000 600.000000 -295.691376
v 501.000000 244.929138 -295.691376
v 499.000000 244.929138 -295.691376
v 501.000000 532.108643 -295.691376
v 499.000000 532.108643 -295.691376
v 499.000000 228.221344 -295.691376
v 501.000000 228.221344 -295.691376
v 499.000000 0.000000 141.561432
v 501.000000 600.000000 141.561432
v 501.000000 244.929138 141.561432
v 501.000000 532.108643 141.561432
v 499.000000 600.000000 141.561401
v 501.000000 0.000000 141.561401
v 499.000000 244.929138 141.561401
v 499.000000 532.108643 141.561401
v 499.000000 228.221344 141.561401
v 501.000000 228.221344 141.561432
v 494.000000 532.108643 -284.924225
v 494.000000 244.929138 -284.924225
v 494.000000 244.929138 130.178635
v 494.000000 532.108643 130.178635
v 494.000000 532.108643 -284.924225
v 494.000000 244.929138 -284.924225
v 494.000000 244.929138 -295.691376
v 494.000000 532.108643 -295.691376
v 501.000031 544.366516 500.000000
v 499.000031 544.366516 500.000000
v 498.999969 544.366516 -500.000000
v 500.999969 544.366516 -500.000000
v 501.000000 544.366516 -284.924225
v 499.000000 544.366516 -284.924225
v 499.000000 544.366516 130.178635
v 501.000000 544.366516 130.178665
v 501.000000 544.366516 -295.691376
v 499.000000 544.366516 -295.691376
v 499.000000 544.366516 141.561401
v 501.000000 544.366516 141.561432
v 494.000000 544.366516 -284.924225
v 494.000000 532.108643 -284.924225
v 494.000000 532.108643 130.178635
v 494.000000 244.929138 141.561401
v 494.000000 244.929138 130.178635
v 494.000000 532.108643 141.561401
v 494.000000 544.366516 130.178635
v 494.000000 532.108643 -295.691376
v 494.000000 544.366516 -295.691376
v 494.000000 544.366516 141.561401
v 474.000000 244.929138 130.178635
v 474.000000 244.929138 -284.924225
v 474.000000 244.929138 141.561401
v 474.000000 228.221344 -284.924225
v 474.000000 228.221344 130.178635
v 474.000000 228.221344 141.561401
v 474.000000 244.929138 -295.691376
v 474.000000 228.221344 -295.691376
vn 0.0000 0.0000 1.0000
vn -1.0000 0.0000 0.0000
vn 0.0000 0.0000 -1.0000
vn 1.0000 0.0000 -0.0000
vn 0.0000 -1.0000 0.0000
vn 0.0000 1.0000 0.0000
usemtl Walls
s off
f 166//26 234//26 233//26
f 205//27 235//27 242//27
f 172//28 236//28 235//28
f 216//29 233//29 244//29
f 171//30 206//30 207//30
f 168//31 216//31 219//31
f 174//31 208//31 205//31
f 173//30 192//30 189//30
f 208//29 237//29 241//29
f 191//27 238//27 239//27
f 193//31 257//31 221//31
f 209//29 200//29 214//29
f 217//29 202//29 224//29
f 179//28 199//28 198//28
f 210//27 198//27 213//27
f 177//26 197//26 202//26
f 193//30 226//30 182//30
f 211//29 181//29 209//29
f 218//29 177//29 217//29
f 185//28 180//28 179//28
f 212//27 179//27 210//27
f 183//26 178//26 177//26
f 243//26 250//26 222//26
f 181//29 203//29 200//29
f 182//31 255//31 193//31
f 219//27 239//27 243//27
f 189//30 220//30 215//30
f 191//31 176//31 174//31
f 176//29 240//29 237//29
f 223//27 189//27 215//27
f 200//29 192//29 175//29
f 202//26 167//26 165//26
f 213//27 171//27 207//27
f 198//28 169//28 171//28
f 224//29 165//29 220//29
f 214//29 175//29 206//29
f 204//27 173//27 189//27
f 199//29 206//29 169//29
f 201//27 207//27 173//27
f 182//30 231//30 210//30
f 186//29 209//29 180//29
f 210//31 256//31 182//31
f 180//29 214//29 199//29
f 170//29 241//29 236//29
f 205//31 170//31 172//31
f 207//30 175//30 173//30
f 174//27 242//27 238//27
f 203//29 220//29 192//29
f 197//27 215//27 167//27
f 215//30 165//30 167//30
f 168//27 243//27 234//27
f 178//27 223//27 197//27
f 184//27 221//27 178//27
f 196//29 217//29 194//29
f 194//29 224//29 203//29
f 219//31 190//31 191//31
f 190//29 244//29 240//29
f 195//26 227//26 193//26
f 188//31 228//31 195//31
f 182//28 225//28 188//28
f 229//27 231//27 230//27
f 210//28 232//28 212//28
f 188//26 230//26 182//26
f 212//31 229//31 188//31
f 240//29 218//29 196//29
f 234//27 222//27 184//27
f 212//28 253//28 242//28
f 236//29 211//29 186//29
f 237//29 196//29 187//29
f 242//31 245//31 238//31
f 239//31 254//31 243//31
f 241//29 187//29 211//29
f 244//29 183//29 218//29
f 235//28 186//28 185//28
f 242//27 185//27 212//27
f 233//26 184//26 183//26
f 250//27 249//27 248//27
f 245//27 252//27 246//27
f 254//27 247//27 250//27
f 251//27 246//27 247//27
f 238//31 251//31 239//31
f 221//30 249//30 193//30
f 195//30 246//30 188//30
f 188//30 252//30 212//30
f 193//28 247//28 195//28
f 222//26 248//26 221//26
f 255//27 258//27 259//27
f 257//27 259//27 260//27
f 256//27 262//27 258//27
f 213//28 261//28 210//28
f 223//30 259//30 204//30
f 221//26 260//26 223//26
f 204//30 258//30 201//30
f 201//30 262//30 213//30
f 166//26 168//26 234//26
f 205//27 172//27 235//27
f 172//28 170//28 236//28
f 216//29 166//29 233//29
f 171//30 169//30 206//30
f 168//31 166//31 216//31
f 174//31 176//31 208//31
f 173//30 175//30 192//30
f 208//29 176//29 237//29
f 191//27 174//27 238//27
f 193//31 255//31 257//31
f 209//29 181//29 200//29
f 217//29 177//29 202//29
f 179//28 180//28 199//28
f 210//27 179//27 198//27
f 177//26 178//26 197//26
f 193//30 227//30 226//30
f 211//29 187//29 181//29
f 218//29 183//29 177//29
f 185//28 186//28 180//28
f 212//27 185//27 179//27
f 183//26 184//26 178//26
f 243//26 254//26 250//26
f 181//29 194//29 203//29
f 182//31 256//31 255//31
f 219//27 191//27 239//27
f 189//30 192//30 220//30
f 191//31 190//31 176//31
f 176//29 190//29 240//29
f 223//27 204//27 189//27
f 200//29 203//29 192//29
f 202//26 197//26 167//26
f 213//27 198//27 171//27
f 198//28 199//28 169//28
f 224//29 202//29 165//29
f 214//29 200//29 175//29
f 204//27 201//27 173//27
f 199//29 214//29 206//29
f 201//27 213//27 207//27
f 182//30 230//30 231//30
f 186//29 211//29 209//29
f 210//31 261//31 256//31
f 180//29 209//29 214//29
f 170//29 208//29 241//29
f 205//31 208//31 170//31
f 207//30 206//30 175//30
f 174//27 205//27 242//27
f 203//29 224//29 220//29
f 197//27 223//27 215//27
f 215//30 220//30 165//30
f 168//27 219//27 243//27
f 178//27 221//27 223//27
f 184//27 222//27 221//27
f 196//29 218//29 217//29
f 194//29 217//29 224//29
f 219//31 216//31 190//31
f 190//29 216//29 244//29
f 195//26 228//26 227//26
f 188//31 225//31 228//31
f 182//28 226//28 225//28
f 229//27 232//27 231//27
f 210//28 231//28 232//28
f 188//26 229//26 230//26
f 212//31 232//31 229//31
f 240//29 244//29 218//29
f 234//27 243//27 222//27
f 212//28 252//28 253//28
f 236//29 241//29 211//29
f 237//29 240//29 196//29
f 242//31 253//31 245//31
f 239//31 251//31 254//31
f 241//29 237//29 187//29
f 244//29 233//29 183//29
f 235//28 236//28 186//28
f 242//27 235//27 185//27
f 233//26 234//26 184//26
f 250//27 247//27 249//27
f 245//27 253//27 252//27
f 254//27 251//27 247//27
f 251//27 245//27 246//27
f 238//31 245//31 251//31
f 221//30 248//30 249//30
f 195//30 247//30 246//30
f 188//30 246//30 252//30
f 193//28 249//28 247//28
f 222//26 250//26 248//26
f 255//27 256//27 258//27
f 257//27 255//27 259//27
f 256//27 261//27 262//27
f 213//28 262//28 261//28
f 223//30 260//30 259//30
f 221//26 257//26 260//26
f 204//30 259//30 258//30
f 201//30 258//30 262//30
o Wall_1_Cube.002
v -500.000000 0.000000 -499.000000
v -500.000000 600.000000 -499.000000
v -500.000000 0.000000 -501.000000
v -500.000000 600.000000 -501.000000
v 500.000000 0.000000 -499.000000
v 500.000000 600.000000 -499.000000
v 500.000000 0.000000 -501.000000
v 500.000000 600.000000 -501.000000
vn -1.0000 0.0000 0.0000
vn 0.0000 0.0000 -1.0000
vn 1.0000 0.0000 0.0000
vn 0.0000 0.0000 1.0000
vn 0.0000 -1.0000 0.0000
vn 0.0000 1.0000 0.0000
usemtl Walls
s off
f 264//32 265//32 263//32
f 266//33 269//33 265//33
f 270//34 267//34 269//34
f 268//35 263//35 267//35
f 269//36 263//36 265//36
f 266//37 268//37 270//37
f 264//32 266//32 265//32
f 266//33 270//33 269//33
f 270//34 268//34 267//34
f 268//35 264//35 263//35
f 269//36 267//36 263//36
f 266//37 264//37 268//37
o Wall_3_Cube.001
v -500.000000 0.000000 501.000000
v -500.000000 600.000000 501.000000
v -500.000000 0.000000 499.000000
v -500.000000 600.000000 499.000000
v 500.000000 0.000000 501.000000
v 500.000000 600.000000 501.000000
v 500.000000 0.000000 499.000000
v 500.000000 600.000000 499.000000
vn -1.0000 0.0000 0.0000
vn 0.0000 0.0000 -1.0000
vn 1.0000 0.0000 0.0000
vn 0.0000 0.0000 1.0000
vn 0.0000 -1.0000 0.0000
vn 0.0000 1.0000 0.0000
usemtl Walls
s off
f 272//38 273//38 271//38
f 274//39 277//39 273//39
f 278//40 275//40 277//40
f 276//41 271//41 275//41
f 277//42 271//42 273//42
f 274//43 276//43 278//43
f 272//38 274//38 273//38
f 274//39 278//39 277//39
f 278//40 276//40 275//40
f 276//41 272//41 271//41
f 277//42 275//42 271//42
f 274//43 272//43 276//43
o Floor_Plane
v -500.000000 0.000000 500.000000
v 500.000000 0.000000 500.000000
v -500.000000 0.000000 -500.000000
v 500.000000 0.000000 -500.000000
vn 0.0000 1.0000 0.0000
usemtl Wood
s off
f 280//44 281//44 279//44
f 280//44 282//44 281//44
