# Blender v2.79 (sub 0) OBJ File: 'bookshelf.blend'
# www.blender.org
mtllib Stack_Bottom.mtl
o Stack_Bottom_Cube.003
v -10.781279 -15.683397 89.381477
v -10.781279 24.316603 89.381477
v -10.781279 -15.683397 87.381477
v -10.781279 24.316603 87.381477
v 9.218721 -15.683397 89.381477
v 9.218721 24.316603 89.381477
v 9.218721 -15.683397 87.381477
v 9.218721 24.316603 87.381477
v -10.781279 24.316603 27.405903
v -10.781279 -15.683397 27.405903
v 9.218721 -15.683397 27.405903
v 9.218721 24.316603 27.405903
vt 0.000000 0.000000
vt 0.000000 0.000000
vt 0.000000 0.000000
vt 0.000000 0.000000
vt 0.000000 0.000000
vt 0.000000 0.000000
vt 0.000000 0.000000
vt 0.000000 0.000000
vt 0.000000 0.000000
vt 0.572907 1.158301
vt 1.239574 0.158301
vt 0.572907 0.158301
vt 0.000000 0.000000
vt 0.000000 0.000000
vt 0.000000 0.000000
vt 1.239574 1.158301
vn -1.0000 0.0000 0.0000
vn 0.0000 1.0000 0.0000
vn 1.0000 0.0000 0.0000
vn 0.0000 0.0000 1.0000
vn 0.0000 -1.0000 0.0000
vn 0.0000 0.0000 -1.0000
usemtl Book3
s off
f 2/1/1 3/2/1 1/3/1
f 8/4/2 9/5/2 4/6/2
f 8/4/3 5/7/3 7/8/3
f 6/9/4 1/3/4 5/7/4
f 7/8/5 1/3/5 3/2/5
f 4/6/2 6/9/2 8/4/2
f 9/10/6 11/11/6 10/12/6
f 4/6/1 10/13/1 3/2/1
f 7/8/3 12/14/3 8/4/3
f 3/2/5 11/15/5 7/8/5
f 2/1/1 4/6/1 3/2/1
f 8/4/2 12/14/2 9/5/2
f 8/4/3 6/9/3 5/7/3
f 6/9/4 2/1/4 1/3/4
f 7/8/5 5/7/5 1/3/5
f 4/6/2 2/1/2 6/9/2
f 9/10/6 12/16/6 11/11/6
f 4/6/1 9/5/1 10/13/1
f 7/8/3 11/15/3 12/14/3
f 3/2/5 10/13/5 11/15/5
o Shelf_Body_Cube.001
v 30.000000 -180.000000 -89.999992
v 30.000000 -180.000000 90.000000
v -30.000004 -180.000000 89.999985
v -29.999989 -180.000000 -90.000031
v 30.000015 180.000000 -89.999954
v 29.999981 180.000000 90.000053
v -30.000011 180.000000 89.999969
v -29.999998 180.000000 -90.000000
v 30.000015 175.117859 -89.999954
v 29.999981 175.117859 90.000053
v -30.000011 175.117859 89.999969
v -29.999998 175.117859 -90.000000
v 30.000000 -180.000000 -84.999992
v -29.999989 -180.000000 -85.000023
v 30.000015 180.000000 -84.999947
v -29.999998 180.000000 -85.000000
v -29.999998 175.117859 -85.000000
v 30.000015 175.117859 -84.999947
v 30.000000 -180.000000 83.039772
v 29.999983 180.000000 83.039825
v 29.999983 175.117859 83.039825
v -30.000004 -180.000000 83.039757
v -30.000011 180.000000 83.039742
v -30.000011 175.117859 83.039742
v 30.000011 111.918915 -89.999954
v 29.999985 111.918915 90.000046
v -30.000011 111.918915 89.999969
v -29.999996 111.918915 -90.000008
v 30.000011 111.918915 -84.999954
v -29.999996 111.918915 -85.000000
v -30.000011 111.918915 83.039749
v 29.999985 111.918915 83.039818
v 30.000011 104.872589 -84.999954
v -29.999996 104.872589 -85.000000
v -30.000011 104.872589 83.039749
v 29.999985 104.872589 83.039818
v 30.000011 104.872589 -89.999954
v 29.999985 104.872589 90.000046
v -30.000011 104.872589 89.999969
v -29.999996 104.872589 -90.000008
v -29.999994 49.312336 -85.000008
v -30.000011 49.312336 83.039749
v 30.000011 49.312336 -89.999969
v 29.999987 49.312336 90.000031
v -30.000011 49.312336 89.999969
v -29.999994 49.312336 -90.000008
v -29.999994 40.260536 -85.000008
v -30.000011 40.260536 83.039749
v 30.000011 40.260536 -89.999969
v 29.999987 40.260536 90.000031
v -30.000011 40.260536 89.999969
v -29.999994 40.260536 -90.000008
v 30.000008 -16.320152 -84.999969
v -29.999992 -16.320152 -85.000015
v -30.000008 -16.320152 83.039757
v 29.999992 -16.320152 83.039795
v 30.000008 -16.320152 -89.999969
v 29.999990 -16.320152 90.000023
v -30.000008 -16.320152 89.999977
v -29.999992 -16.320152 -90.000023
v -29.999992 -24.403109 -85.000015
v -30.000008 -24.403109 83.039757
v 30.000008 -24.403109 -89.999969
v 29.999990 -24.403109 90.000023
v -30.000008 -24.403109 89.999977
v -29.999992 -24.403109 -90.000023
v -29.999996 -180.000000 -0.980133
v -30.000004 180.000000 -0.980127
v -30.000004 175.117859 -0.980127
v 30.000000 -180.000000 -0.980106
v 29.999998 180.000000 -0.980063
v 29.999998 175.117859 -0.980063
v 29.999998 111.918915 -0.980068
v -30.000004 111.918915 -0.980127
v -30.000004 104.872589 -0.980127
v 29.999998 104.872589 -0.980068
v -30.000004 49.312336 -0.980127
v -30.000004 40.260536 -0.980127
v 30.000000 -16.320152 -0.980085
v -30.000000 -16.320152 -0.980133
v -30.000000 -24.403109 -0.980133
v -29.999989 -171.049744 -85.000023
v -30.000004 -171.049744 83.039757
v 30.000000 -171.049744 -89.999992
v 30.000000 -171.049744 90.000000
v -30.000004 -171.049744 89.999985
v -29.999989 -171.049744 -90.000031
v -29.999996 -171.049744 -0.980133
v -95.220467 163.087112 38.264164
v 30.000008 -28.003107 -83.199974
v 30.000008 -20.803108 -86.799973
v 29.999992 -28.003107 81.239799
v 29.999989 -20.803108 84.839798
v 30.000000 -28.003107 0.819915
v 30.000000 -28.003107 -2.780085
v 30.000000 -20.803108 -0.980085
v 30.000000 -167.449738 -83.199997
v 30.000000 -174.649734 -86.799988
v 30.000000 -174.649734 84.839775
v 30.000000 -167.449738 81.239777
v 30.000000 -167.449738 0.819896
v 30.000000 -174.649734 -0.980105
v 30.000000 -167.449738 -2.780104
v 31.999990 -28.003107 81.239799
v 31.999998 -28.003107 0.819915
v 31.999998 -28.003107 -2.780085
v 32.000004 -28.003107 -83.199974
v 31.999998 -167.449738 -83.199997
v 31.999998 -167.449738 81.239777
v 31.999998 -167.449738 0.819896
v 31.999998 -167.449738 -2.780104
v 29.699991 -16.320152 89.100021
v 29.699991 -16.320152 89.100021
v -29.700008 -16.320152 89.099976
v 29.700008 -16.320152 -89.099976
v -29.699993 -16.320152 -89.100021
v 29.700008 -16.320152 -89.099976
v -29.700008 -16.320152 89.099976
v -29.699993 -16.320152 -89.100021
v 30.000011 49.312336 -83.199966
v 30.000011 49.312336 -86.799965
v 30.000011 52.912338 -84.999962
v 29.999989 49.312336 84.839806
v 29.999989 49.312336 81.239807
v 29.999989 52.912338 83.039810
v 30.000011 40.260536 -86.799965
v 30.000011 40.260536 -83.199966
v 30.000011 36.660538 -84.999962
v 29.999989 40.260536 81.239807
v 29.999989 40.260536 84.839806
v 29.999989 36.660538 83.039810
v 30.000000 49.312336 0.819921
v 30.000000 49.312336 -2.780079
v 30.000000 40.260536 -2.780079
v 30.000000 40.260536 0.819921
vt 0.000000 0.000000
vt -1.000000 0.038668
vt 0.000000 0.038668
vt -0.000000 0.038668
vt 1.000000 -0.000000
vt 1.000000 0.038668
vt 0.038668 1.000000
vt -0.000000 0.986439
vt 0.038668 0.986439
vt 1.000000 1.000000
vt -0.000000 0.986439
vt 1.000000 0.986439
vt 0.972222 1.000000
vt 1.000000 0.986439
vt 0.972222 0.986439
vt 0.000000 0.000000
vt -1.000000 0.024862
vt 0.000000 0.024862
vt 0.000000 -0.013561
vt -1.000000 0.000000
vt 0.000000 0.000000
vt 0.972222 0.810886
vt 1.000000 0.810886
vt -0.000000 0.810886
vt 1.000000 0.810886
vt -0.000000 0.810886
vt 0.038668 0.810886
vt 1.000000 0.986439
vt 0.972222 0.810886
vt 1.000000 0.810886
vt 0.505445 0.986439
vt 0.505445 0.810886
vt 0.505445 1.000000
vt 1.000000 1.000000
vt 0.972222 0.986439
vt -1.000000 1.000000
vt 0.000000 0.972222
vt 0.000000 1.000000
vt 0.000000 -0.027778
vt -1.000000 0.000000
vt 0.000000 1.000000
vt 0.038668 0.986439
vt 0.038668 0.810886
vt 0.505445 1.000000
vt 0.505445 0.986439
vt -1.000000 0.505445
vt -0.000000 0.038668
vt 0.000000 0.505445
vt -1.000000 0.505445
vt 0.000000 0.505445
vt 0.505445 0.810886
vt 0.038668 0.791313
vt 0.505445 0.791313
vt 0.038668 0.791313
vt 0.000000 0.791313
vt 0.972222 0.791313
vt 0.505445 0.791313
vt 0.972222 0.791313
vt 1.000000 0.791313
vt -0.000000 0.791313
vt 1.000000 0.791313
vt 1.000000 0.791313
vt 0.000000 0.810886
vt -1.000000 0.986439
vt 0.000000 0.986439
vt 0.972222 0.636979
vt 1.000000 0.636979
vt -0.000000 0.636979
vt 1.000000 0.636979
vt 0.028668 0.636979
vt -0.000000 0.611835
vt 0.028668 0.611835
vt 1.000000 0.636979
vt 0.982222 0.611835
vt 1.000000 0.611835
vt 0.505445 0.636979
vt 0.038668 0.636979
vt 0.000000 0.791313
vt -1.000000 0.810886
vt 0.972222 0.601835
vt 0.038668 0.611835
vt 0.000000 0.611835
vt 0.972222 0.611835
vt 0.505445 0.611835
vt 0.962222 0.636979
vt 0.515445 0.611835
vt 0.962222 0.611835
vt 0.495445 0.636979
vt 0.048668 0.611835
vt 0.495445 0.611835
vt 1.000000 0.611835
vt 1.000000 0.611835
vt 0.000000 0.636979
vt -1.000000 0.791313
vt 1.000000 0.454666
vt 0.972222 0.454666
vt -0.000000 0.454666
vt 1.000000 0.454666
vt 0.038668 0.601835
vt -0.000000 0.454666
vt 0.505445 0.454666
vt 0.038668 0.454666
vt 0.000000 0.611835
vt -1.000000 0.636979
vt 0.000000 0.034862
vt 0.033333 0.422214
vt 0.000000 0.422214
vt 0.038668 0.432214
vt 0.000000 0.432214
vt 0.972222 0.432214
vt 0.505445 0.432214
vt 0.000000 0.422214
vt 0.033333 0.034862
vt 0.000000 0.034862
vt 0.028668 0.442214
vt 0.000000 0.024862
vt 0.028668 0.014862
vt 1.000000 0.432214
vt 1.000000 0.432214
vt 0.000000 0.454666
vt -1.000000 0.611835
vt 0.972222 0.024862
vt 1.000000 0.024862
vt -0.000000 0.432214
vt -1.000000 0.024862
vt 0.505445 0.442214
vt 0.038668 0.454666
vt 0.505445 0.024862
vt 0.038668 0.024862
vt 0.000000 0.024862
vt -0.017778 0.014862
vt -0.027778 0.000000
vt 0.000000 0.432214
vt -1.000000 0.454666
vt 1.000000 0.454666
vt 0.982222 0.442214
vt 1.000000 0.432214
vt 0.038668 0.646979
vt -0.000000 0.636979
vt -1.000000 0.972222
vt 0.000000 0.972222
vt -1.000000 0.972222
vt 0.972222 1.000000
vt 0.038668 1.000000
vt 0.505445 0.000000
vt 0.038668 0.000000
vt 0.038668 0.000000
vt 0.000000 0.000000
vt 0.972222 0.000000
vt 0.972222 0.000000
vt 0.505445 0.014862
vt 0.505445 0.000000
vt -1.000000 0.000000
vt 1.000000 0.000000
vt -1.000000 0.432214
vt 0.495445 0.422214
vt 0.515445 0.422214
vt 0.495445 0.034862
vt 0.515445 0.034862
vt 0.048668 0.422214
vt 0.962222 0.422214
vt 0.962222 0.034862
vt 0.982222 0.014862
vt 0.048668 0.034862
vt 0.972222 0.454666
vt 0.495445 0.422214
vt 0.048668 0.034862
vt 0.495445 0.034862
vt 0.962222 0.422214
vt 0.515445 0.034862
vt 0.962222 0.034862
vt -0.000000 0.048668
vt 0.033333 0.495445
vt 0.000000 0.495445
vt 1.000000 0.034862
vt 1.033333 0.422214
vt 1.000000 0.422214
vt 0.000000 0.495445
vt 0.033333 0.048668
vt 0.000000 0.048668
vt 0.000000 0.515445
vt 0.033333 0.962222
vt 0.000000 0.962222
vt 0.000000 0.962222
vt 0.033333 0.515445
vt 0.000000 0.515445
vt 0.000000 0.422214
vt 0.033333 0.034862
vt 0.000000 0.034862
vt 0.000000 0.505445
vt -1.000000 0.972222
vt -1.000000 0.505445
vt 1.000000 0.000000
vt 2.000000 0.038668
vt 1.000000 0.038668
vt -1.000000 1.000000
vt 0.000000 0.972222
vt 0.000000 1.000000
vt 1.000000 1.000000
vt 0.000000 2.000000
vt -0.000000 1.000000
vt 1.000000 1.000000
vt 0.000000 2.000000
vt -0.000000 1.000000
vt 1.000000 1.000000
vt 0.000000 2.000000
vt -0.000000 1.000000
vt -0.000000 -1.000000
vt 1.000000 -0.000000
vt 0.000000 0.000000
vt 0.995000 0.995000
vt 0.005000 0.995000
vt 0.995000 0.995000
vt 0.005000 0.005000
vt 1.000000 -0.000000
vt 0.995000 0.005000
vt 0.000000 1.000000
vt 0.005000 0.995000
vt 1.000000 1.000000
vt -0.000000 0.000000
vt 0.005000 0.005000
vt 0.995000 0.005000
vt 0.982222 0.636979
vt 0.972222 0.646979
vt 0.048668 0.636979
vt 0.515445 0.636979
vt -0.000000 0.000000
vt -0.000000 1.000000
vt 1.000000 1.000000
vt -1.000000 -0.013561
vt -1.000000 -0.027778
vt -1.000000 0.038668
vt 0.033333 0.034862
vt 0.033333 0.422214
vt -1.000000 0.432214
vt 0.505445 0.454666
vt -0.017778 0.442214
vt 0.048668 0.422214
vt 0.515445 0.422214
vt 0.033333 0.048668
vt 1.033333 0.034862
vt 0.033333 0.495445
vt 0.033333 0.515445
vt 0.033333 0.962222
vt 0.033333 0.422214
vt -1.000000 0.038668
vt -0.000000 0.038668
vt 2.000000 -0.000000
vt 1.000000 2.000000
vt 1.000000 2.000000
vt 1.000000 2.000000
vt 1.000000 -1.000000
vn 0.0000 -1.0000 0.0000
vn 0.0000 1.0000 -0.0000
vn 1.0000 0.0000 0.0000
vn -0.0000 0.0000 1.0000
vn -1.0000 0.0000 0.0000
vn 0.0000 0.0000 -1.0000
usemtl Wood
s off
f 14/17/7 34/18/7 31/19/7
f 35/20/8 18/21/8 32/22/8
f 32/23/9 22/24/9 33/25/9
f 18/26/10 23/27/10 22/28/10
f 28/29/11 24/30/11 29/31/11
f 13/32/12 99/33/12 96/34/12
f 21/35/12 20/36/12 17/37/12
f 42/38/11 24/30/11 40/39/11
f 22/28/10 39/40/10 38/41/10
f 33/25/9 38/42/9 44/43/9
f 21/44/9 41/45/9 37/46/9
f 81/47/11 42/38/11 86/48/11
f 80/49/11 29/31/11 81/47/11
f 17/50/9 30/51/9 21/44/9
f 20/52/8 27/53/8 17/54/8
f 25/55/7 16/56/7 13/32/7
f 19/57/11 36/58/11 23/27/11
f 23/27/11 43/59/11 39/40/11
f 83/60/9 33/25/9 84/61/9
f 80/62/8 32/63/8 83/64/8
f 31/19/7 79/65/7 82/66/7
f 85/67/9 48/68/9 88/69/9
f 39/40/11 47/70/11 51/71/11
f 86/48/11 46/72/11 87/73/11
f 37/46/9 45/74/9 49/75/9
f 44/43/9 50/76/9 48/68/9
f 38/41/10 51/71/10 50/77/10
f 42/38/11 52/78/11 46/72/11
f 37/79/12 24/80/12 21/81/12
f 53/82/11 52/78/11 58/83/11
f 50/77/10 57/84/10 56/85/10
f 135/86/9 62/87/9 142/88/9
f 55/89/9 138/90/9 61/91/9
f 87/73/11 53/82/11 89/92/11
f 51/71/11 54/93/11 57/84/11
f 49/94/12 40/95/12 37/79/12
f 61/91/9 138/90/9 140/96/9
f 57/84/11 60/97/11 63/98/11
f 89/92/11 59/99/11 90/100/11
f 132/101/9 146/102/9 139/103/9
f 144/104/9 141/105/9 147/106/9
f 56/85/10 63/98/10 62/107/10
f 53/82/11 64/108/11 59/99/11
f 55/109/12 52/110/12 49/94/12
f 59/99/11 72/111/11 66/112/11
f 62/107/10 71/113/10 70/114/10
f 143/115/9 62/87/9 70/116/9
f 90/100/11 66/112/11 92/117/11
f 63/98/11 67/118/11 71/113/11
f 61/119/12 58/120/12 55/109/12
f 115/121/10 118/122/10 107/123/10
f 71/113/11 74/124/11 77/125/11
f 92/117/11 73/126/11 93/127/11
f 102/128/12 120/129/12 109/130/12
f 105/131/9 97/132/9 111/133/9
f 70/114/10 77/125/10 76/134/10
f 66/112/11 78/135/11 73/126/11
f 69/136/12 64/137/12 61/119/12
f 94/138/11 78/135/11 99/139/11
f 76/140/10 98/141/10 97/132/10
f 108/142/9 68/143/9 105/131/9
f 105/131/9 70/116/9 76/140/9
f 93/127/11 94/138/11 100/144/11
f 77/125/11 95/145/11 98/146/11
f 13/32/9 110/147/9 25/148/9
f 75/149/12 72/150/12 69/136/12
f 75/149/9 110/147/9 96/34/9
f 74/124/11 100/144/11 95/145/11
f 67/118/11 93/127/11 74/124/11
f 69/151/9 103/152/9 75/153/9
f 60/97/11 92/117/11 67/118/11
f 54/93/11 90/100/11 60/97/11
f 137/154/9 50/76/9 56/155/9
f 47/70/11 89/92/11 54/93/11
f 43/59/11 87/73/11 47/70/11
f 41/45/9 88/69/9 45/74/9
f 82/66/7 26/156/7 25/157/7
f 28/158/8 83/64/8 27/53/8
f 27/159/9 84/61/9 30/51/9
f 35/160/11 81/47/11 36/58/11
f 36/58/11 86/48/11 43/59/11
f 95/145/11 79/161/11 34/162/11
f 111/133/9 14/17/9 31/163/9
f 98/146/11 34/162/11 15/164/11
f 100/144/11 26/165/11 79/161/11
f 25/166/9 114/167/9 82/168/9
f 114/167/9 31/163/9 82/168/9
f 97/132/10 15/169/10 14/17/10
f 94/138/11 16/170/11 26/165/11
f 96/34/12 78/171/12 75/149/12
f 106/172/9 107/173/9 108/142/9
f 113/174/9 114/167/9 115/175/9
f 108/142/9 104/176/9 106/172/9
f 108/142/9 102/177/9 103/152/9
f 109/178/9 103/152/9 102/177/9
f 111/133/9 104/176/9 105/131/9
f 113/174/9 107/173/9 106/172/9
f 109/178/9 114/167/9 110/179/9
f 112/180/9 114/167/9 113/174/9
f 65/181/9 108/142/9 103/152/9
f 117/182/9 121/183/9 122/184/9
f 119/185/9 123/186/9 120/187/9
f 104/188/8 117/189/8 106/190/8
f 112/191/10 116/192/10 104/193/10
f 113/194/7 121/195/7 112/196/7
f 107/197/8 119/198/8 102/199/8
f 109/200/7 123/201/7 115/202/7
f 106/203/12 122/204/12 113/205/12
f 85/206/8 42/207/8 86/208/8
f 39/209/8 44/210/8 43/211/8
f 40/212/8 41/213/8 37/214/8
f 50/215/8 52/216/8 51/217/8
f 62/218/8 64/219/8 63/220/8
f 56/221/8 58/222/8 57/223/8
f 77/224/8 75/225/8 78/226/8
f 127/227/10 131/228/10 129/229/10
f 126/230/8 70/231/8 125/232/8
f 127/227/8 72/233/8 128/234/8
f 125/232/8 69/235/8 127/227/8
f 128/234/8 71/236/8 126/230/8
f 130/237/8 129/229/8 131/228/8
f 128/234/10 130/237/10 131/228/10
f 126/230/10 124/238/10 130/237/10
f 125/232/10 129/229/10 124/238/10
f 132/101/9 133/239/9 134/240/9
f 135/86/9 136/241/9 137/154/9
f 138/90/9 139/103/9 140/96/9
f 141/105/9 142/88/9 143/115/9
f 139/103/9 133/239/9 132/101/9
f 142/88/9 136/241/9 135/86/9
f 147/106/9 145/242/9 144/104/9
f 49/75/9 45/74/9 134/240/9
f 14/17/7 15/169/7 34/18/7
f 35/20/8 19/243/8 18/21/8
f 32/23/9 18/244/9 22/24/9
f 18/26/10 19/57/10 23/27/10
f 28/29/11 20/245/11 24/30/11
f 13/32/12 16/56/12 99/33/12
f 21/35/12 24/246/12 20/36/12
f 42/38/11 29/31/11 24/30/11
f 22/28/10 23/27/10 39/40/10
f 33/25/9 22/24/9 38/42/9
f 21/44/9 30/51/9 41/45/9
f 81/47/11 29/31/11 42/38/11
f 80/49/11 28/29/11 29/31/11
f 17/50/9 27/159/9 30/51/9
f 20/52/8 28/158/8 27/53/8
f 25/55/7 26/247/7 16/56/7
f 19/57/11 35/160/11 36/58/11
f 23/27/11 36/58/11 43/59/11
f 83/60/9 32/23/9 33/25/9
f 80/62/8 35/248/8 32/63/8
f 31/19/7 34/18/7 79/65/7
f 85/67/9 44/43/9 48/68/9
f 39/40/11 43/59/11 47/70/11
f 86/48/11 42/38/11 46/72/11
f 37/46/9 41/45/9 45/74/9
f 44/43/9 38/42/9 50/76/9
f 38/41/10 39/40/10 51/71/10
f 42/38/11 40/39/11 52/78/11
f 37/79/12 40/95/12 24/80/12
f 53/82/11 46/72/11 52/78/11
f 50/77/10 51/71/10 57/84/10
f 135/86/9 56/155/9 62/87/9
f 55/89/9 133/239/9 138/90/9
f 87/73/11 46/72/11 53/82/11
f 51/71/11 47/70/11 54/93/11
f 49/94/12 52/110/12 40/95/12
f 65/181/9 69/151/9 140/96/9
f 69/151/9 61/91/9 140/96/9
f 57/84/11 54/93/11 60/97/11
f 89/92/11 53/82/11 59/99/11
f 132/101/9 145/242/9 146/102/9
f 144/104/9 136/241/9 141/105/9
f 56/85/10 57/84/10 63/98/10
f 53/82/11 58/83/11 64/108/11
f 55/109/12 58/120/12 52/110/12
f 59/99/11 64/108/11 72/111/11
f 62/107/10 63/98/10 71/113/10
f 70/116/9 68/143/9 143/115/9
f 143/115/9 142/88/9 62/87/9
f 90/100/11 59/99/11 66/112/11
f 63/98/11 60/97/11 67/118/11
f 61/119/12 64/137/12 58/120/12
f 115/121/10 123/249/10 118/122/10
f 71/113/11 67/118/11 74/124/11
f 92/117/11 66/112/11 73/126/11
f 102/128/12 119/250/12 120/129/12
f 105/131/9 76/140/9 97/132/9
f 70/114/10 71/113/10 77/125/10
f 66/112/11 72/111/11 78/135/11
f 69/136/12 72/150/12 64/137/12
f 94/138/11 73/126/11 78/135/11
f 76/140/10 77/251/10 98/141/10
f 108/142/9 91/252/9 68/143/9
f 105/131/9 68/143/9 70/116/9
f 93/127/11 73/126/11 94/138/11
f 77/125/11 74/124/11 95/145/11
f 13/32/9 96/34/9 110/147/9
f 75/149/12 78/171/12 72/150/12
f 75/149/9 103/253/9 110/147/9
f 74/124/11 93/127/11 100/144/11
f 67/118/11 92/117/11 93/127/11
f 69/151/9 65/181/9 103/152/9
f 60/97/11 90/100/11 92/117/11
f 54/93/11 89/92/11 90/100/11
f 56/155/9 135/86/9 137/154/9
f 137/154/9 48/68/9 50/76/9
f 47/70/11 87/73/11 89/92/11
f 43/59/11 86/48/11 87/73/11
f 41/45/9 85/67/9 88/69/9
f 82/66/7 79/65/7 26/156/7
f 28/158/8 80/62/8 83/64/8
f 27/159/9 83/60/9 84/61/9
f 35/160/11 80/49/11 81/47/11
f 36/58/11 81/47/11 86/48/11
f 95/145/11 100/144/11 79/161/11
f 111/133/9 97/132/9 14/17/9
f 98/146/11 95/145/11 34/162/11
f 100/144/11 94/138/11 26/165/11
f 25/166/9 110/179/9 114/167/9
f 114/167/9 111/133/9 31/163/9
f 97/132/10 98/141/10 15/169/10
f 94/138/11 99/139/11 16/170/11
f 96/34/12 99/33/12 78/171/12
f 108/142/9 105/131/9 104/176/9
f 108/142/9 107/173/9 102/177/9
f 109/178/9 110/179/9 103/152/9
f 111/133/9 112/180/9 104/176/9
f 113/174/9 115/175/9 107/173/9
f 109/178/9 115/175/9 114/167/9
f 112/180/9 111/133/9 114/167/9
f 65/181/9 91/252/9 108/142/9
f 117/182/9 116/254/9 121/183/9
f 119/185/9 118/255/9 123/186/9
f 104/188/8 116/256/8 117/189/8
f 112/191/10 121/257/10 116/192/10
f 113/194/7 122/258/7 121/195/7
f 107/197/8 118/259/8 119/198/8
f 109/200/7 120/260/7 123/201/7
f 106/203/12 117/261/12 122/204/12
f 85/206/8 41/213/8 42/207/8
f 86/208/8 43/262/8 85/206/8
f 43/262/8 44/263/8 85/206/8
f 39/209/8 38/264/8 44/210/8
f 40/212/8 42/207/8 41/213/8
f 50/215/8 49/265/8 52/216/8
f 62/218/8 61/266/8 64/219/8
f 56/221/8 55/267/8 58/222/8
f 77/224/8 76/268/8 75/225/8
f 127/227/10 128/234/10 131/228/10
f 126/230/8 71/236/8 70/231/8
f 127/227/8 69/235/8 72/233/8
f 125/232/8 70/231/8 69/235/8
f 128/234/8 72/233/8 71/236/8
f 130/237/8 124/238/8 129/229/8
f 128/234/10 126/230/10 130/237/10
f 126/230/10 125/232/10 124/238/10
f 125/232/10 127/227/10 129/229/10
f 139/103/9 138/90/9 133/239/9
f 142/88/9 141/105/9 136/241/9
f 147/106/9 146/102/9 145/242/9
f 133/239/9 55/89/9 134/240/9
f 55/89/9 49/75/9 134/240/9
