# Blender v2.79 (sub 0) OBJ File: 'room.blend'
# www.blender.org
mtllib Walll_4.mtl
o Walll_4_Cube.004
v -498.999969 0.000000 500.000000
v -498.999969 600.000000 500.000000
v -500.999969 0.000000 500.000000
v -500.999969 600.000000 500.000000
v -499.000031 0.000000 -500.000000
v -499.000031 600.000000 -500.000000
v -501.000031 0.000000 -500.000000
v -501.000031 600.000000 -500.000000
v -501.000031 0.000000 -427.233246
v -501.000031 600.000000 -427.233246
v -499.000031 0.000000 -427.233246
v -499.000031 600.000000 -427.233246
v -501.000000 0.000000 -223.203125
v -499.000000 600.000000 -223.203125
v -501.000000 600.000000 -223.203094
v -499.000000 0.000000 -223.203094
v -498.999969 404.068237 500.000000
v -500.999969 404.068237 500.000000
v -501.000031 404.068237 -500.000000
v -499.000031 404.068237 -500.000000
v -499.000031 404.068237 -427.233246
v -501.000031 404.068237 -427.233246
v -501.000000 404.068237 -223.203110
v -499.000000 404.068237 -223.203110
v -501.000000 600.000000 -230.913162
v -499.000000 0.000000 -230.913162
v -501.000000 0.000000 -230.913193
v -499.000000 600.000000 -230.913193
v -499.000000 404.068237 -230.913177
v -501.000000 404.068237 -230.913177
v -501.000031 600.000000 -434.881531
v -499.000031 0.000000 -434.881531
v -501.000031 0.000000 -434.881531
v -499.000031 600.000000 -434.881531
v -499.000031 404.068237 -434.881531
v -501.000031 404.068237 -434.881531
v -498.999969 414.754517 500.000000
v -500.999969 414.754517 500.000000
v -501.000031 414.754517 -500.000000
v -499.000031 414.754517 -500.000000
v -499.000031 414.754517 -427.233246
v -501.000031 414.754517 -427.233246
v -501.000000 414.754517 -223.203110
v -499.000000 414.754517 -223.203110
v -499.000000 414.754517 -230.913177
v -501.000000 414.754517 -230.913177
v -499.000031 414.754517 -434.881531
v -501.000031 414.754517 -434.881531
v -504.000031 0.000000 -434.881531
v -504.000031 0.000000 -427.233246
v -504.000031 404.068237 -427.233246
v -504.000000 0.000000 -230.913193
v -504.000000 0.000000 -223.203125
v -504.000000 404.068237 -223.203110
v -504.000031 414.754517 -427.233246
v -504.000000 414.754517 -223.203110
v -504.000000 404.068237 -230.913177
v -504.000000 414.754517 -230.913177
v -504.000031 404.068237 -434.881531
v -504.000031 414.754517 -434.881531
v -494.000031 404.068237 -427.233246
v -494.000031 0.000000 -427.233246
v -494.000000 404.068237 -223.203110
v -494.000000 0.000000 -223.203094
v -494.000031 414.754517 -427.233246
v -494.000000 414.754517 -223.203110
v -494.000000 404.068237 -230.913177
v -494.000031 404.068237 -434.881531
v -494.000000 0.000000 -230.913162
v -494.000000 414.754517 -230.913177
v -494.000031 0.000000 -434.881531
v -494.000031 414.754517 -434.881531
v -506.000031 0.000000 -434.881531
v -506.000031 0.000000 -427.233246
v -506.000031 404.068237 -427.233246
v -506.000000 0.000000 -230.913193
v -506.000000 0.000000 -223.203125
v -506.000000 404.068237 -223.203110
v -506.000031 414.754517 -427.233246
v -506.000000 414.754517 -223.203110
v -506.000000 404.068237 -230.913177
v -506.000000 414.754517 -230.913177
v -506.000031 404.068237 -434.881531
v -506.000031 414.754517 -434.881531
vt 0.000000 0.000000
vt 0.000000 0.000000
vt 0.000000 0.000000
vt 0.000000 0.000000
vt 0.000000 0.000000
vt 0.000000 0.000000
vt 0.000000 0.000000
vt 0.000000 0.000000
vt 0.648920 1.000000
vt 0.166406 0.691254
vt 0.648920 0.691254
vt 0.000000 0.000000
vt 0.000000 0.000000
vt 0.000000 0.000000
vt 0.000000 0.000000
vt 0.000000 0.000000
vt 0.000000 0.000000
vt 0.000000 0.000000
vt 0.000000 0.000000
vt 0.790143 1.000000
vt 0.785043 0.691254
vt 0.790143 0.691254
vt 0.654061 1.000000
vt 0.785043 0.691254
vt 0.654061 0.691254
vt 0.166406 1.000000
vt 0.648920 0.691254
vt 0.166406 0.691254
vt 0.000000 0.000000
vt 0.000000 0.000000
vt 0.000000 0.000000
vt 0.000000 0.000000
vt 0.000000 0.000000
vt 0.654061 1.000000
vt 0.654061 0.691254
vt 0.000000 0.000000
vt 0.000000 0.000000
vt 0.000000 0.000000
vt 0.166406 0.673447
vt 0.648920 0.000000
vt 0.166406 0.000000
vt 0.000000 0.000000
vt 0.000000 0.000000
vt 0.648920 0.673447
vt 0.166406 0.000000
vt 0.648920 0.000000
vt 0.000000 0.000000
vt 0.000000 0.000000
vt 0.790143 0.673447
vt 0.833594 0.000000
vt 0.790143 0.000000
vt 0.000000 0.000000
vt 0.654061 0.000000
vt 0.785043 1.500000
vt 0.785043 0.000000
vt 0.785043 1.000000
vt 0.000000 0.000000
vt 0.648920 1.000000
vt 0.000000 0.000000
vt 0.000000 0.000000
vt 0.000000 0.000000
vt 0.000000 0.000000
vt 0.166406 0.673447
vt 0.122956 0.000000
vt 0.166406 0.000000
vt 0.166406 1.000000
vt 0.122956 0.691254
vt 0.166406 0.691254
vt 0.000000 0.000000
vt 0.000000 0.000000
vt 0.000000 0.000000
vt 0.785043 1.000000
vt 0.790143 0.691254
vt 0.000000 0.000000
vt 0.000000 0.000000
vt 0.122956 0.673447
vt 0.000000 0.000000
vt 0.000000 0.000000
vt 0.000000 0.000000
vt 0.000000 0.000000
vt 0.000000 0.000000
vt 0.000000 0.000000
vt 0.000000 0.000000
vt 0.648920 0.673447
vt 0.000000 0.000000
vt 0.000000 0.000000
vt 0.000000 0.000000
vt 0.000000 0.000000
vt 0.166406 0.673447
vt 0.000000 0.000000
vt 0.833594 0.673447
vt 0.000000 0.000000
vt 0.000000 0.000000
vt 0.000000 0.000000
vt 0.000000 0.000000
vt 0.000000 0.000000
vt 0.000000 0.000000
vt 0.000000 0.000000
vt 0.000000 0.000000
vt 0.000000 0.000000
vt 0.000000 0.000000
vt 0.000000 0.000000
vt 0.000000 0.000000
vt 0.000000 0.000000
vt 0.000000 0.000000
vt 0.000000 0.000000
vt 0.000000 0.000000
vt 0.000000 0.000000
vt 0.000000 0.000000
vt 0.000000 0.000000
vt 0.000000 0.000000
vt 0.000000 0.000000
vt 0.000000 0.000000
vt 0.000000 0.000000
vt 0.000000 0.000000
vt 0.000000 0.000000
vt 0.000000 0.000000
vt 0.648920 0.000000
vt 0.654061 0.673447
vt 0.654061 0.000000
vt 0.785043 0.673447
vt 0.790143 0.000000
vt 0.785043 0.000000
vt 0.785043 0.691254
vt 0.790143 0.673447
vt 0.648920 0.691254
vt 0.648920 0.673447
vt 0.654061 0.691254
vt 0.000000 0.000000
vt 0.000000 0.000000
vt 0.000000 0.000000
vt 0.000000 0.000000
vt 0.000000 0.000000
vt 0.000000 0.000000
vt 0.000000 0.000000
vt 0.166406 1.000000
vt 0.654061 1.500000
vt 0.122956 1.000000
vt 0.790143 1.000000
vt 0.833594 0.691254
vt 0.790143 0.691254
vn 0.0000 0.0000 1.0000
vn -1.0000 0.0000 0.0000
vn 0.0000 0.0000 -1.0000
vn 1.0000 0.0000 -0.0000
vn 0.0000 -1.0000 0.0000
vn 0.0000 1.0000 0.0000
usemtl Walls
s off
f 2/1/1 38/2/1 37/3/1
f 31/4/2 39/5/2 48/6/2
f 8/7/3 40/8/3 39/5/3
f 14/9/4 37/10/4 44/11/4
f 7/12/5 32/13/5 33/14/5
f 4/15/6 14/16/6 15/17/6
f 10/18/6 34/19/6 31/4/6
f 34/20/4 41/21/4 47/22/4
f 25/23/2 42/24/2 46/25/2
f 4/26/2 43/27/2 38/28/2
f 13/29/5 1/30/5 3/31/5
f 15/17/6 28/32/6 25/33/6
f 28/34/4 44/11/4 45/35/4
f 41/36/6 72/37/6 47/38/6
f 18/39/2 13/40/2 3/41/2
f 35/42/3 71/43/3 32/13/3
f 24/44/4 1/45/4 16/46/4
f 19/47/3 5/48/3 7/12/3
f 36/49/2 7/50/2 33/51/2
f 17/52/1 3/31/1 1/30/1
f 30/53/5 51/54/5 22/55/5
f 12/56/4 45/35/4 41/21/4
f 25/33/6 12/57/6 10/18/6
f 15/58/2 46/25/2 43/27/2
f 27/59/5 16/60/5 13/29/5
f 23/61/1 53/62/1 13/29/1
f 20/63/4 32/64/4 5/65/4
f 6/66/4 47/67/4 40/68/4
f 31/4/6 6/69/6 8/7/6
f 33/14/5 11/70/5 9/71/5
f 10/72/2 48/73/2 42/24/2
f 43/74/1 54/75/1 23/61/1
f 40/68/4 35/76/4 20/63/4
f 42/77/6 58/78/6 46/79/6
f 26/80/5 64/81/5 16/60/5
f 45/82/6 65/83/6 41/36/6
f 38/28/2 23/84/2 18/39/2
f 33/14/3 59/85/3 36/86/3
f 16/60/1 63/87/1 24/88/1
f 44/11/4 17/89/4 24/44/4
f 39/5/3 20/90/3 19/47/3
f 48/73/2 19/91/2 36/49/2
f 37/3/1 18/92/1 17/52/1
f 56/93/1 78/94/1 54/75/1
f 55/95/6 82/96/6 58/78/6
f 52/97/3 81/98/3 57/99/3
f 51/100/1 74/101/1 50/102/1
f 49/103/3 83/104/3 59/85/3
f 48/6/6 55/95/6 42/77/6
f 36/86/3 60/105/3 48/6/3
f 27/59/3 57/99/3 30/106/3
f 22/107/1 50/102/1 9/71/1
f 46/79/6 56/93/6 43/74/6
f 9/71/5 49/103/5 33/14/5
f 13/29/5 52/97/5 27/59/5
f 69/108/4 63/87/4 64/81/4
f 68/109/4 62/110/4 71/43/4
f 65/83/4 67/111/4 61/112/4
f 70/113/4 63/87/4 67/111/4
f 72/37/4 61/112/4 68/109/4
f 24/88/1 66/114/1 44/115/1
f 11/70/1 61/112/1 21/116/1
f 44/115/6 70/113/6 45/82/6
f 32/13/5 62/110/5 11/70/5
f 47/38/3 68/109/3 35/42/3
f 29/117/3 69/108/3 26/80/3
f 21/116/5 67/111/5 29/117/5
f 77/118/2 81/119/2 76/120/2
f 75/121/2 73/122/2 74/123/2
f 79/124/2 83/125/2 75/121/2
f 80/126/2 81/119/2 78/127/2
f 82/128/2 75/121/2 81/119/2
f 59/85/3 84/129/3 60/105/3
f 53/62/5 76/130/5 52/97/5
f 57/99/5 75/131/5 51/100/5
f 60/105/6 79/132/6 55/95/6
f 54/75/1 77/133/1 53/62/1
f 50/102/5 73/134/5 49/103/5
f 58/78/6 80/135/6 56/93/6
f 2/1/1 4/15/1 38/2/1
f 31/4/2 8/7/2 39/5/2
f 8/7/3 6/69/3 40/8/3
f 14/9/4 2/136/4 37/10/4
f 7/12/5 5/48/5 32/13/5
f 4/15/6 2/1/6 14/16/6
f 10/18/6 12/57/6 34/19/6
f 34/20/4 12/56/4 41/21/4
f 25/23/2 10/72/2 42/24/2
f 4/26/2 15/58/2 43/27/2
f 13/29/5 16/60/5 1/30/5
f 15/17/6 14/16/6 28/32/6
f 28/34/4 14/9/4 44/11/4
f 41/36/6 65/83/6 72/37/6
f 18/39/2 23/84/2 13/40/2
f 35/42/3 68/109/3 71/43/3
f 24/44/4 17/89/4 1/45/4
f 19/47/3 20/90/3 5/48/3
f 36/49/2 19/91/2 7/50/2
f 17/52/1 18/92/1 3/31/1
f 30/53/5 57/137/5 51/54/5
f 12/56/4 28/34/4 45/35/4
f 25/33/6 28/32/6 12/57/6
f 15/58/2 25/23/2 46/25/2
f 27/59/5 26/80/5 16/60/5
f 23/61/1 54/75/1 53/62/1
f 20/63/4 35/76/4 32/64/4
f 6/66/4 34/138/4 47/67/4
f 31/4/6 34/19/6 6/69/6
f 33/14/5 32/13/5 11/70/5
f 10/72/2 31/139/2 48/73/2
f 43/74/1 56/93/1 54/75/1
f 40/68/4 47/67/4 35/76/4
f 42/77/6 55/95/6 58/78/6
f 26/80/5 69/108/5 64/81/5
f 45/82/6 70/113/6 65/83/6
f 38/28/2 43/27/2 23/84/2
f 33/14/3 49/103/3 59/85/3
f 16/60/1 64/81/1 63/87/1
f 44/11/4 37/10/4 17/89/4
f 39/5/3 40/8/3 20/90/3
f 48/73/2 39/140/2 19/91/2
f 37/3/1 38/2/1 18/92/1
f 56/93/1 80/135/1 78/94/1
f 55/95/6 79/132/6 82/96/6
f 52/97/3 76/130/3 81/98/3
f 51/100/1 75/131/1 74/101/1
f 49/103/3 73/134/3 83/104/3
f 48/6/6 60/105/6 55/95/6
f 36/86/3 59/85/3 60/105/3
f 27/59/3 52/97/3 57/99/3
f 22/107/1 51/100/1 50/102/1
f 46/79/6 58/78/6 56/93/6
f 9/71/5 50/102/5 49/103/5
f 13/29/5 53/62/5 52/97/5
f 69/108/4 67/111/4 63/87/4
f 68/109/4 61/112/4 62/110/4
f 65/83/4 70/113/4 67/111/4
f 70/113/4 66/114/4 63/87/4
f 72/37/4 65/83/4 61/112/4
f 24/88/1 63/87/1 66/114/1
f 11/70/1 62/110/1 61/112/1
f 44/115/6 66/114/6 70/113/6
f 32/13/5 71/43/5 62/110/5
f 47/38/3 72/37/3 68/109/3
f 29/117/3 67/111/3 69/108/3
f 21/116/5 61/112/5 67/111/5
f 77/118/2 78/127/2 81/119/2
f 75/121/2 83/125/2 73/122/2
f 79/124/2 84/141/2 83/125/2
f 80/126/2 82/128/2 81/119/2
f 82/128/2 79/124/2 75/121/2
f 59/85/3 83/104/3 84/129/3
f 53/62/5 77/133/5 76/130/5
f 57/99/5 81/98/5 75/131/5
f 60/105/6 84/129/6 79/132/6
f 54/75/1 78/94/1 77/133/1
f 50/102/5 74/101/5 73/134/5
f 58/78/6 82/96/6 80/135/6
